<?xml version="1.0" encoding="utf-8"?><!-- Generator: Adobe Illustrator 15.0.0, SVG Export Plug-In . SVG Version: 6.00 Build 0)  --><!DOCTYPE svg PUBLIC "-//W3C//DTD SVG 1.1//EN" "http://www.w3.org/Graphics/SVG/1.1/DTD/svg11.dtd"><svg xmlns="http://www.w3.org/2000/svg" xmlns:xlink="http://www.w3.org/1999/xlink" version="1.1" id="Слой_1" x="0px" y="0px" width="48px" height="48px" viewBox="0 0 48 48" enable-background="new 0 0 48 48" xml:space="preserve">
<path fill="#FF9800" d="M21,35c-5,0-5-6-5-6v-6h10v6C26,29,26,35,21,35z"/>
<g>
	<path fill="#FFA726" d="M32,17c0,1.105-0.895,2-2,2s-2-0.895-2-2s0.895-2,2-2S32,15.895,32,17"/>
	<path fill="#FFA726" d="M14,17c0,1.105-0.895,2-2,2s-2-0.895-2-2s0.895-2,2-2S14,15.895,14,17"/>
</g>
<path fill="#FFB74D" d="M30,11c0-7.635-18-4.971-18,0v7c0,4.971,4.029,9,9,9c4.971,0,9-4.029,9-9V11z"/>
<path fill="#424242" d="M21,2c-6.075,0-10,4.925-10,11v2.284L13,17v-5l12-4l4,4v5l2-1.741V13c0-4.025-1.038-8.015-6-9l-1-2H21z"/>
<g>
	<path fill="#784719" d="M24,17c0,0.552,0.448,1,1,1s1-0.448,1-1s-0.448-1-1-1S24,16.448,24,17"/>
	<path fill="#784719" d="M16,17c0,0.552,0.448,1,1,1s1-0.448,1-1s-0.448-1-1-1S16,16.448,16,17"/>
</g>
<path fill="#4FC3F7" d="M26,29L26,29c0,0-1,4-5,4s-5-4-5-4S5,30.986,5,42h32C37,31.025,26,29,26,29"/>
<path fill="#01579B" d="M21,35c5,0,6.745-3.93,6.951-5.428C26.794,29.148,26,29,26,29s-1,4-5,4s-5-4-5-4s-0.794,0.146-1.952,0.566  C14.252,31.061,16,35,21,35z"/>
<path fill="#43A047" d="M43,36c0,5.523-4.477,10-10,10s-10-4.477-10-10s4.477-10,10-10S43,30.477,43,36"/>
<g>
	<rect x="31" y="30" fill="#FFFFFF" width="4" height="12"/>
	<rect x="27" y="34" fill="#FFFFFF" width="12" height="4"/>
</g>
</svg>