<?xml version="1.0" encoding="utf-8"?><!-- Generator: Adobe Illustrator 15.0.0, SVG Export Plug-In . SVG Version: 6.00 Build 0)  --><!DOCTYPE svg PUBLIC "-//W3C//DTD SVG 1.1//EN" "http://www.w3.org/Graphics/SVG/1.1/DTD/svg11.dtd"><svg xmlns="http://www.w3.org/2000/svg" xmlns:xlink="http://www.w3.org/1999/xlink" version="1.1" id="Слой_1" x="0px" y="0px" width="48px" height="48px" viewBox="0 0 48 48" enable-background="new 0 0 48 48" xml:space="preserve">
<polygon fill="#FF9800" points="24,37 19,31 19,25 29,25 29,31 "/>
<g>
	<path fill="#FFA726" d="M35,19c0,1.105-0.895,2-2,2s-2-0.895-2-2s0.895-2,2-2S35,17.895,35,19"/>
	<path fill="#FFA726" d="M17,19c0,1.105-0.895,2-2,2s-2-0.895-2-2s0.895-2,2-2S17,17.895,17,19"/>
</g>
<path fill="#FFB74D" d="M33,13c0-7.635-18-4.971-18,0v7c0,4.971,4.029,9,9,9c4.971,0,9-4.029,9-9V13z"/>
<path fill="#424242" d="M24,4c-6.075,0-10,4.925-10,11v2.284L16,19v-5l12-4l4,4v5l2-1.741V15c0-4.025-1.038-8.015-6-9l-1-2H24z"/>
<g>
	<path fill="#784719" d="M27,19c0,0.552,0.448,1,1,1s1-0.448,1-1s-0.448-1-1-1S27,18.448,27,19"/>
	<path fill="#784719" d="M19,19c0,0.552,0.448,1,1,1s1-0.448,1-1s-0.448-1-1-1S19,18.448,19,19"/>
</g>
<polygon fill="#FFFFFF" points="24,43 19,31 24,32 29,31 "/>
<polygon fill="#D32F2F" points="23,35 22.333,39.464 24,43.464 25.667,39.464 25,35 26,34 24,32 22,34 "/>
<path fill="#3F51B5" d="M29,31L29,31l-5,12l-5-12c0,0-11,1.986-11,13h32C40,33.025,29,31,29,31"/>
</svg>