<?xml version="1.0" encoding="utf-8"?><!-- Generator: Adobe Illustrator 15.0.0, SVG Export Plug-In . SVG Version: 6.00 Build 0)  --><!DOCTYPE svg PUBLIC "-//W3C//DTD SVG 1.1//EN" "http://www.w3.org/Graphics/SVG/1.1/DTD/svg11.dtd"><svg xmlns="http://www.w3.org/2000/svg" xmlns:xlink="http://www.w3.org/1999/xlink" version="1.1" id="Слой_1" x="0px" y="0px" width="48px" height="48px" viewBox="0 0 48 48" enable-background="new 0 0 48 48" xml:space="preserve">
<g>
	<path fill="#1976D2" d="M17.46,27c-1.099,1.225-2.688,2-4.46,2h-3c-3.308,0-6-2.691-6-6s2.692-6,6-6h3c1.772,0,3.361,0.775,4.46,2   h4.7c-1.547-3.527-5.068-6-9.16-6h-3C4.486,13,0,17.486,0,23s4.486,10,10,10h3c4.092,0,7.613-2.473,9.16-6H17.46z"/>
	<path fill="#1976D2" d="M38,13h-3c-4.092,0-7.612,2.473-9.158,6h4.699c1.1-1.225,2.688-2,4.459-2h3c3.31,0,6,2.691,6,6s-2.69,6-6,6   h-3c-1.771,0-3.359-0.775-4.459-2h-4.699c1.546,3.527,5.066,6,9.158,6h3c5.515,0,10-4.486,10-10S43.515,13,38,13"/>
</g>
<g>
	<polygon fill="#00BCD4" points="19.474,4 16,5.985 22.056,14.088 23.38,13.331  "/>
	<polygon fill="#00BCD4" points="28.527,4 32,5.985 25.945,14.088 24.621,13.331  "/>
	<polygon fill="#00BCD4" points="28.527,44 32,42.016 25.945,33.912 24.621,34.669  "/>
	<polygon fill="#00BCD4" points="19.474,44 16,42.016 22.056,33.912 23.38,34.669  "/>
</g>
</svg>