<?xml version="1.0" encoding="utf-8"?><!-- Generator: Adobe Illustrator 15.0.0, SVG Export Plug-In . SVG Version: 6.00 Build 0)  --><!DOCTYPE svg PUBLIC "-//W3C//DTD SVG 1.1//EN" "http://www.w3.org/Graphics/SVG/1.1/DTD/svg11.dtd"><svg xmlns="http://www.w3.org/2000/svg" xmlns:xlink="http://www.w3.org/1999/xlink" version="1.1" id="Слой_1" x="0px" y="0px" width="48px" height="48px" viewBox="0 0 48 48" enable-background="new 0 0 48 48" xml:space="preserve">
<path fill="#F44336" d="M43,33c0,5.523-4.477,10-10,10s-10-4.477-10-10s4.477-10,10-10S43,27.477,43,33"/>
<g>
	<rect x="31.5" y="27" transform="matrix(-0.7071 0.7071 -0.7071 -0.7071 79.6691 33)" fill="#FFFFFF" width="3" height="12"/>
	
		<rect x="31.501" y="27" transform="matrix(-0.7071 -0.7071 0.7071 -0.7071 33.0008 79.6694)" fill="#FFFFFF" width="3" height="11.999"/>
</g>
<g>
	<path fill="#1976D2" d="M19.896,19.086c-2.9-2.899-2.889-7.63,0.025-10.544l1.452-1.451c2.914-2.914,7.644-2.926,10.544-0.025   c2.878,2.878,2.929,7.521,0.119,10.572l-1.509,1.511C27.418,22.016,22.773,21.964,19.896,19.086z M29.088,9.894   c-1.34-1.34-3.533-1.329-4.887,0.025l-1.452,1.451c-1.354,1.354-1.365,3.547-0.024,4.888c1.354,1.354,3.566,1.357,5.033,0.005   l1.393-1.395C30.445,13.46,30.443,11.249,29.088,9.894z"/>
	<path fill="#1976D2" d="M7.168,31.814c-2.9-2.9-2.889-7.631,0.024-10.544l1.452-1.452c2.914-2.914,7.644-2.925,10.544-0.024   c2.877,2.877,2.929,7.521,0.119,10.572l-1.509,1.511C14.688,34.744,10.045,34.691,7.168,31.814z M16.36,22.622   c-1.341-1.341-3.533-1.329-4.888,0.024l-1.452,1.452c-1.354,1.354-1.365,3.547-0.024,4.887c1.355,1.355,3.566,1.358,5.033,0.006   l1.393-1.395C17.718,26.188,17.715,23.977,16.36,22.622z"/>
</g>
<path fill="#42A5F5" d="M13.531,25.449c-0.781-0.78-0.781-2.047,0-2.828l9.192-9.192c0.781-0.781,2.047-0.781,2.829,0  c0.78,0.781,0.78,2.048,0,2.828l-9.193,9.192C15.579,26.23,14.313,26.23,13.531,25.449z"/>
</svg>