<?xml version="1.0" encoding="utf-8"?><!-- Generator: Adobe Illustrator 15.0.0, SVG Export Plug-In . SVG Version: 6.00 Build 0)  --><!DOCTYPE svg PUBLIC "-//W3C//DTD SVG 1.1//EN" "http://www.w3.org/Graphics/SVG/1.1/DTD/svg11.dtd"><svg xmlns="http://www.w3.org/2000/svg" xmlns:xlink="http://www.w3.org/1999/xlink" version="1.1" id="Слой_1" x="0px" y="0px" width="48px" height="48px" viewBox="0 0 48 48" enable-background="new 0 0 48 48" xml:space="preserve">
<path fill="#90A4AE" d="M6,34v5c0,1.657,1.343,3,3,3h30c1.656,0,3-1.343,3-3v-5H6z"/>
<path fill="#CFD8DC" d="M39,6H23c-1.657,0-3,1.343-3,3v7c0,1.657-1.343,3-3,3H9c-1.657,0-3,1.343-3,3v12c0,1.657,1.343,3,3,3h30  c1.656,0,3-1.343,3-3V9C42,7.343,40.656,6,39,6z"/>
<polygon fill="#F50057" points="30,15 30,26 25,26 25,23 20,27 25,31 25,28 30,28 32,28 32,26 32,15 "/>
</svg>