<?xml version="1.0" encoding="utf-8"?><!-- Generator: Adobe Illustrator 15.0.0, SVG Export Plug-In . SVG Version: 6.00 Build 0)  --><!DOCTYPE svg PUBLIC "-//W3C//DTD SVG 1.1//EN" "http://www.w3.org/Graphics/SVG/1.1/DTD/svg11.dtd"><svg xmlns="http://www.w3.org/2000/svg" xmlns:xlink="http://www.w3.org/1999/xlink" version="1.1" id="Слой_1" x="0px" y="0px" width="48px" height="48px" viewBox="0 0 48 48" enable-background="new 0 0 48 48" xml:space="preserve">
<path fill="none" stroke="#546E7A" stroke-width="2" stroke-linejoin="round" stroke-miterlimit="10" d="M24,21  c0-12.912,13-0.962,13-14"/>
<rect x="2" y="21" fill="#8CBCD6" width="44" height="20"/>
<g>
	<rect x="4" y="23" fill="#E1F5FE" width="4" height="4"/>
	<rect x="10" y="23" fill="#E1F5FE" width="4" height="4"/>
	<rect x="16" y="23" fill="#E1F5FE" width="4" height="4"/>
	<rect x="22" y="23" fill="#E1F5FE" width="4" height="4"/>
	<rect x="28" y="23" fill="#E1F5FE" width="4" height="4"/>
	<rect x="34" y="23" fill="#E1F5FE" width="4" height="4"/>
	<rect x="40" y="23" fill="#E1F5FE" width="4" height="4"/>
	<rect x="4" y="35" fill="#E1F5FE" width="4" height="4"/>
	<rect x="10" y="35" fill="#E1F5FE" width="4" height="4"/>
	<rect x="16" y="35" fill="#E1F5FE" width="16" height="4"/>
	<rect x="34" y="35" fill="#E1F5FE" width="4" height="4"/>
	<rect x="40" y="35" fill="#E1F5FE" width="4" height="4"/>
	<rect x="4" y="29" fill="#E1F5FE" width="7" height="4"/>
	<rect x="13" y="29" fill="#E1F5FE" width="4" height="4"/>
	<rect x="19" y="29" fill="#E1F5FE" width="4" height="4"/>
	<rect x="25" y="29" fill="#E1F5FE" width="4" height="4"/>
	<rect x="31" y="29" fill="#E1F5FE" width="4" height="4"/>
	<rect x="37" y="29" fill="#E1F5FE" width="7" height="4"/>
</g>
</svg>