<?xml version="1.0" encoding="utf-8"?><!-- Generator: Adobe Illustrator 15.0.0, SVG Export Plug-In . SVG Version: 6.00 Build 0)  --><!DOCTYPE svg PUBLIC "-//W3C//DTD SVG 1.1//EN" "http://www.w3.org/Graphics/SVG/1.1/DTD/svg11.dtd"><svg xmlns="http://www.w3.org/2000/svg" xmlns:xlink="http://www.w3.org/1999/xlink" version="1.1" id="Слой_1" x="0px" y="0px" width="48px" height="48px" viewBox="0 0 48 48" enable-background="new 0 0 48 48" xml:space="preserve">
<path fill="#BBDEFB" d="M14,41c0,0.553,0.448,1,1,1h27V7c0-0.553-0.447-1-1-1H15c-0.552,0-1,0.447-1,1V41z"/>
<path fill="#3F51B5" d="M20,6H7C6.447,6,6,6.447,6,7v35h14V6z"/>
<circle fill="#FFEB3B" cx="10" cy="10" r="2"/>
<circle fill="#8BC34A" cx="16" cy="10" r="2"/>
<path fill="#FAFAFA" d="M18,15c0-0.553-0.447-1-1-1H9c-0.553,0-1,0.447-1,1l0,0c0,0.553,0.447,1,1,1h8C17.553,16,18,15.553,18,15  L18,15z"/>
</svg>