<?xml version="1.0" encoding="utf-8"?><!-- Generator: Adobe Illustrator 15.0.0, SVG Export Plug-In . SVG Version: 6.00 Build 0)  --><!DOCTYPE svg PUBLIC "-//W3C//DTD SVG 1.1//EN" "http://www.w3.org/Graphics/SVG/1.1/DTD/svg11.dtd"><svg xmlns="http://www.w3.org/2000/svg" xmlns:xlink="http://www.w3.org/1999/xlink" version="1.1" id="Слой_1" x="0px" y="0px" width="48px" height="48px" viewBox="0 0 48 48" enable-background="new 0 0 48 48" xml:space="preserve">
<path fill="#00BCD4" d="M38,25v-7c0-6.075-4.925-11-11-11h-1v18H38z"/>
<path fill="#CFD8DC" d="M26,25V7h-1c-6.075,0-11,4.925-11,11v7H26z"/>
<path fill="#00838F" d="M38,24v10c0,12-11.019,12-11.019,12h-1.963c0,0-10.792,0-11.019-12V24H38z"/>
<g>
	<path fill="none" stroke="#B2EBF2" stroke-width="2" d="M13,12c0-2,2-5,5-5"/>
	<path fill="none" stroke="#B2EBF2" stroke-width="2" d="M9,12c0-4.975,4.025-9,9-9"/>
</g>
<path fill="#37474F" d="M28,19c0,1.104-0.896,2-2,2l0,0c-1.104,0-2-0.896-2-2v-5c0-1.104,0.896-2,2-2l0,0c1.104,0,2,0.896,2,2V19z"/>
</svg>