<?xml version="1.0" encoding="utf-8"?><!-- Generator: Adobe Illustrator 15.0.0, SVG Export Plug-In . SVG Version: 6.00 Build 0)  --><!DOCTYPE svg PUBLIC "-//W3C//DTD SVG 1.1//EN" "http://www.w3.org/Graphics/SVG/1.1/DTD/svg11.dtd"><svg xmlns="http://www.w3.org/2000/svg" xmlns:xlink="http://www.w3.org/1999/xlink" version="1.1" id="Слой_1" x="0px" y="0px" width="48px" height="48px" viewBox="0 0 48 48" enable-background="new 0 0 48 48" xml:space="preserve">
<path fill="#CFD8DC" d="M12,27V17C12,5,23.019,5,23.019,5h1.963c0,0,10.792,0,11.019,12v10H12z"/>
<path fill="#00838F" d="M12,21v10c0,12,11.019,12,11.019,12h1.963c0,0,10.792,0,11.019-12V21H12z"/>
<polygon fill="#E91E63" points="25,11 28,11 24,7 20,11 23,11 23,15 20,15 24,19 28,15 25,15 "/>
</svg>