<?xml version="1.0" encoding="utf-8"?><!-- Generator: Adobe Illustrator 15.0.0, SVG Export Plug-In . SVG Version: 6.00 Build 0)  --><!DOCTYPE svg PUBLIC "-//W3C//DTD SVG 1.1//EN" "http://www.w3.org/Graphics/SVG/1.1/DTD/svg11.dtd"><svg xmlns="http://www.w3.org/2000/svg" xmlns:xlink="http://www.w3.org/1999/xlink" version="1.1" id="Слой_1" x="0px" y="0px" width="48px" height="48px" viewBox="0 0 48 48" enable-background="new 0 0 48 48" xml:space="preserve">
<path fill="none" stroke="#546E7A" stroke-width="2" d="M17,9L17,9c0,0,0-5,5-5s7,4,11,8.513C39.115,19.412,42,12,42,10"/>
<path fill="#CFD8DC" d="M5,30V20C5,8,16.019,8,16.019,8h1.963c0,0,10.792,0,11.019,12v10H5z"/>
<path fill="#00838F" d="M5,24v10c0,12,11.019,12,11.019,12h1.963c0,0,10.792,0,11.019-12V24H5z"/>
<path fill="#37474F" d="M19,19c0,1.104-0.896,2-2,2l0,0c-1.104,0-2-0.896-2-2v-5c0-1.104,0.896-2,2-2l0,0c1.104,0,2,0.896,2,2V19z"/>
</svg>