<?xml version="1.0" encoding="utf-8"?><!-- Generator: Adobe Illustrator 15.0.0, SVG Export Plug-In . SVG Version: 6.00 Build 0)  --><!DOCTYPE svg PUBLIC "-//W3C//DTD SVG 1.1//EN" "http://www.w3.org/Graphics/SVG/1.1/DTD/svg11.dtd"><svg xmlns="http://www.w3.org/2000/svg" xmlns:xlink="http://www.w3.org/1999/xlink" version="1.1" id="Слой_1" x="0px" y="0px" width="48px" height="48px" viewBox="0 0 48 48" enable-background="new 0 0 48 48" xml:space="preserve">
<path fill="#455A64" d="M40,31c0,0.553-0.447,2-1,2H9c-0.552,0-1-1.447-1-2V10c0-0.553,0.448-1,1-1h30c0.553,0,1,0.447,1,1V31z"/>
<rect x="10" y="11" fill="#BBDEFB" width="28" height="18"/>
<g>
	<rect x="3" y="37" fill="#CFD8DC" width="42" height="2"/>
	<polygon fill="#CFD8DC" points="40,31 8,31 3,37 45,37  "/>
</g>
<polygon fill="#546E7A" points="10,32 38,32 40,35 8,35 "/>
<polygon fill="#90A4AE" points="28,35 20,35 19,37 29,37 "/>
</svg>