<?xml version="1.0" encoding="utf-8"?><!-- Generator: Adobe Illustrator 15.0.0, SVG Export Plug-In . SVG Version: 6.00 Build 0)  --><!DOCTYPE svg PUBLIC "-//W3C//DTD SVG 1.1//EN" "http://www.w3.org/Graphics/SVG/1.1/DTD/svg11.dtd"><svg xmlns="http://www.w3.org/2000/svg" xmlns:xlink="http://www.w3.org/1999/xlink" version="1.1" id="Слой_1" x="0px" y="0px" width="48px" height="48px" viewBox="0 0 48 48" enable-background="new 0 0 48 48" xml:space="preserve">
<circle fill="#7CB342" cx="24" cy="23.211" r="19"/>
<g>
	<path fill="#DCEDC8" d="M27.533,25.601c0.109,0.528-0.232,1.054-0.762,1.164l-3.852,0.802c-0.529,0.111-1.053-0.229-1.164-0.763   l-1.805-8.667c-0.109-0.529,0.232-1.051,0.76-1.16l3.854-0.807c0.529-0.108,1.052,0.233,1.163,0.762L27.533,25.601z"/>
	<circle fill="#DCEDC8" cx="21.906" cy="12.349" r="3.138"/>
	<path fill="#DCEDC8" d="M32.668,25.211c-0.42,0-0.834-0.198-1.094-0.569l-2.868-4.093l-4.18-1.602   c-0.688-0.263-1.032-1.034-0.769-1.723c0.264-0.688,0.807-1.195,1.492-0.936l4.791,1.916c0.248,0.094,0.463,0.263,0.615,0.479   l3.103,4.429c0.423,0.603,0.276,1.435-0.327,1.855C33.199,25.132,32.932,25.211,32.668,25.211z"/>
	<path fill="#DCEDC8" d="M15.375,27.841c-0.379,0-0.755-0.161-1.02-0.473c-0.475-0.562-0.405-1.403,0.156-1.879l3.321-2.814   l1.573-4.566c0.438-1.085,1.429-1.26,2.125-1.022c0.695,0.24,0.635,1.196,0.396,1.892l-1.692,4.912   c-0.078,0.226-0.215,0.429-0.398,0.582l-3.601,3.053C15.984,27.736,15.679,27.841,15.375,27.841z"/>
	<path fill="#DCEDC8" d="M31.285,37.211c-0.405,0-0.805-0.183-1.066-0.532l-2.961-3.935c-0.082-0.109-0.146-0.23-0.191-0.358   l-2.013-5.729c-0.243-0.695,0.122-1.457,0.817-1.701c0.693-0.247,1.455,0.123,1.699,0.816l1.943,5.536l2.835,3.769   c0.442,0.59,0.325,1.424-0.263,1.865C31.846,37.125,31.563,37.211,31.285,37.211z"/>
	<path fill="#DCEDC8" d="M19.959,37.211c-0.033,0-0.066,0-0.101-0.004c-0.733-0.055-1.284-0.695-1.229-1.429l0.43-5.755   c0.019-0.256,0.111-0.501,0.266-0.707l2.761-3.641c0.444-0.586,1.282-0.7,1.868-0.256s0.702,1.281,0.257,1.869l-2.522,3.326   l-0.4,5.362C21.236,36.678,20.65,37.211,19.959,37.211z"/>
</g>
</svg>