<?xml version="1.0" encoding="utf-8"?><!-- Generator: Adobe Illustrator 15.0.0, SVG Export Plug-In . SVG Version: 6.00 Build 0)  --><!DOCTYPE svg PUBLIC "-//W3C//DTD SVG 1.1//EN" "http://www.w3.org/Graphics/SVG/1.1/DTD/svg11.dtd"><svg xmlns="http://www.w3.org/2000/svg" xmlns:xlink="http://www.w3.org/1999/xlink" version="1.1" id="Слой_1" x="0px" y="0px" width="48px" height="48px" viewBox="0 0 48 48" enable-background="new 0 0 48 48" xml:space="preserve">
<g>
	<rect x="7" y="16" fill="#00BCD4" width="8" height="8"/>
	<rect x="7" y="24" fill="#00BCD4" width="8" height="8"/>
	<rect x="15" y="24" fill="#00BCD4" width="8" height="8"/>
	<rect x="7" y="32" fill="#00BCD4" width="8" height="8"/>
	<rect x="15" y="32" fill="#00BCD4" width="8" height="8"/>
	<rect x="23" y="32" fill="#00BCD4" width="8" height="8"/>
	<rect x="34" y="7" fill="#00BCD4" width="7" height="7"/>
	
		<rect x="33.062" y="20.418" transform="matrix(-0.9581 0.2865 -0.2865 -0.9581 78.1693 36.1517)" fill="#00BCD4" width="6.755" height="6.755"/>
	
		<rect x="20.169" y="9.708" transform="matrix(-0.6038 0.7971 -0.7971 -0.6038 48.0062 2.1543)" fill="#00BCD4" width="6.599" height="6.599"/>
</g>
<g>
	<path fill="#00838F" d="M16,25H6V15h10V25z M8,23h6v-6H8V23z"/>
	<path fill="#00838F" d="M16,33H6V23h10V33z M8,31h6v-6H8V31z"/>
	<path fill="#00838F" d="M24,33H14V23h10V33z M16,31h6v-6h-6V31z"/>
	<path fill="#00838F" d="M16,41H6V31h10V41z M8,39h6v-6H8V39z"/>
	<path fill="#00838F" d="M24,41H14V31h10V41z M16,39h6v-6h-6V39z"/>
	<path fill="#00838F" d="M32,41H22V31h10V41z M24,39h6v-6h-6V39z"/>
	<path fill="#00838F" d="M42,15h-9V6h9V15z M35,13h5V8h-5V13z"/>
	<path fill="#00838F" d="M33.5,29.245l-2.51-8.389l8.389-2.509l2.51,8.387L33.5,29.245z M33.48,22.199l1.363,4.556l4.555-1.362   l-1.363-4.556L33.48,22.199z"/>
	<path fill="#00838F" d="M24.299,19.03l-6.854-5.192l5.192-6.854l6.854,5.192L24.299,19.03z M20.247,13.451l3.666,2.777l2.776-3.666   l-3.665-2.777L20.247,13.451z"/>
</g>
</svg>