<?xml version="1.0" encoding="utf-8"?><!-- Generator: Adobe Illustrator 15.0.0, SVG Export Plug-In . SVG Version: 6.00 Build 0)  --><!DOCTYPE svg PUBLIC "-//W3C//DTD SVG 1.1//EN" "http://www.w3.org/Graphics/SVG/1.1/DTD/svg11.dtd"><svg xmlns="http://www.w3.org/2000/svg" xmlns:xlink="http://www.w3.org/1999/xlink" version="1.1" id="Слой_1" x="0px" y="0px" width="48px" height="48px" viewBox="0 0 48 48" enable-background="new 0 0 48 48" xml:space="preserve">
<polygon fill="#F44336" points="42,42 6,42 6,6 37,6 42,11 "/>
<path fill="#FFFFFF" d="M39,39c0,0.553-0.447,1-1,1H10c-0.553,0-1-0.447-1-1V25c0-0.553,0.447-1,1-1h28c0.553,0,1,0.447,1,1V39z"/>
<g>
	<rect x="13" y="31" fill="#CFD8DC" width="22" height="2"/>
	<rect x="13" y="27" fill="#CFD8DC" width="22" height="2"/>
	<rect x="13" y="35" fill="#CFD8DC" width="22" height="2"/>
</g>
<path fill="#C62828" d="M9,6v10c0,1.104,0.896,2,2,2h15c1.104,0,2-0.896,2-2V6H9z"/>
<path fill="#B0BEC5" d="M15,6v10c0,1.104,0.896,2,2,2h15c1.104,0,2-0.896,2-2V6H15z"/>
<rect x="26" y="8" fill="#263238" width="4" height="8"/>
</svg>