<?xml version="1.0" encoding="utf-8"?><!-- Generator: Adobe Illustrator 15.0.0, SVG Export Plug-In . SVG Version: 6.00 Build 0)  --><!DOCTYPE svg PUBLIC "-//W3C//DTD SVG 1.1//EN" "http://www.w3.org/Graphics/SVG/1.1/DTD/svg11.dtd"><svg xmlns="http://www.w3.org/2000/svg" xmlns:xlink="http://www.w3.org/1999/xlink" version="1.1" id="Слой_1" x="0px" y="0px" width="48px" height="48px" viewBox="0 0 48 48" enable-background="new 0 0 48 48" xml:space="preserve">
<path fill="#3F51B5" d="M34,13c0,0.553-0.447,1-1,1H5c-0.553,0-1-0.447-1-1V6c0-0.553,0.447-1,1-1h28c0.553,0,1,0.447,1,1V13z"/>
<path fill="#BBDEFB" d="M37.054,31.5c0-2.321-1.222-4.354-3.054-5.504V10H4v29h30v-1.996C35.832,35.854,37.054,33.821,37.054,31.5z"/>
<g>
	
		<rect x="38.053" y="35.418" transform="matrix(0.7069 -0.7074 0.7074 0.7069 -16.8452 39.3499)" fill="#616161" width="2" height="9.161"/>
	<path fill="#616161" d="M30.554,23c-4.693,0-8.5,3.807-8.5,8.5s3.807,8.5,8.5,8.5s8.5-3.807,8.5-8.5S35.247,23,30.554,23z    M30.554,38c-3.589,0-6.5-2.911-6.5-6.5s2.911-6.5,6.5-6.5s6.5,2.911,6.5,6.5S34.143,38,30.554,38z"/>
</g>
<rect x="39.222" y="38.239" transform="matrix(0.7069 -0.7074 0.7074 0.7069 -17.3292 40.5189)" fill="#37474F" width="2" height="5.856"/>
<g>
	<path fill="#1976D2" d="M21.024,27H13v2h7.313C20.482,28.303,20.722,27.635,21.024,27z"/>
	<rect x="13" y="15" fill="#1976D2" width="16" height="2"/>
	<path fill="#1976D2" d="M24.354,23H13v2h9.264C22.864,24.24,23.568,23.568,24.354,23z"/>
	<rect x="13" y="19" fill="#1976D2" width="16" height="2"/>
	<rect x="9" y="31" fill="#1976D2" width="2" height="2"/>
	<path fill="#1976D2" d="M20,31.5c0-0.169,0.018-0.333,0.025-0.5H13v2h7h0.119C20.049,32.509,20,32.011,20,31.5z"/>
	<rect x="9" y="27" fill="#1976D2" width="2" height="2"/>
	<rect x="9" y="15" fill="#1976D2" width="2" height="2"/>
	<rect x="9" y="23" fill="#1976D2" width="2" height="2"/>
	<rect x="9" y="19" fill="#1976D2" width="2" height="2"/>
</g>
</svg>