<?xml version="1.0" encoding="utf-8"?><!-- Generator: Adobe Illustrator 15.0.0, SVG Export Plug-In . SVG Version: 6.00 Build 0)  --><!DOCTYPE svg PUBLIC "-//W3C//DTD SVG 1.1//EN" "http://www.w3.org/Graphics/SVG/1.1/DTD/svg11.dtd"><svg xmlns="http://www.w3.org/2000/svg" xmlns:xlink="http://www.w3.org/1999/xlink" version="1.1" id="Слой_1" x="0px" y="0px" width="48px" height="48px" viewBox="0 0 48 48" enable-background="new 0 0 48 48" xml:space="preserve">
<g>
	<path fill="#00838F" d="M41.938,11.296l-1.76-3.166l-4.477,1.345L34.784,5h-3.693l-0.913,4.446l-4.436-1.369l-1.784,3.153   l3.34,2.748l-3.36,2.725l1.76,3.166l4.477-1.345L31.091,23h3.693l0.913-4.446l4.434,1.368l1.785-3.153l-3.339-2.748L41.938,11.296z    M37.557,14c0,2.485-2.069,4.499-4.619,4.499S28.318,16.485,28.318,14c0-2.486,2.069-4.5,4.619-4.5S37.557,11.514,37.557,14z"/>
	<path fill="#00838F" d="M39.438,14c0-3.59-2.91-6.5-6.5-6.5s-6.5,2.91-6.5,6.5s2.91,6.5,6.5,6.5S39.438,17.59,39.438,14z    M35.938,14c0,1.658-1.344,3-3,3s-3-1.342-3-3c0-1.656,1.344-3,3-3S35.938,12.344,35.938,14z"/>
</g>
<g>
	<path fill="#00ACC1" d="M28,27.695l-2.15-3.869l-5.47,1.643L19.258,20h-4.516l-1.115,5.435l-5.421-1.673l-2.181,3.854l4.082,3.359   L6,34.305l2.15,3.869l5.47-1.644L14.742,42h4.516l1.115-5.434l5.42,1.672l2.18-3.854l-4.081-3.359L28,27.695z M22.644,31   c0,3.038-2.526,5.5-5.644,5.5s-5.644-2.462-5.644-5.5s2.526-5.5,5.644-5.5S22.644,27.962,22.644,31z"/>
	<path fill="#00ACC1" d="M25,31c0-4.418-3.582-8-8-8s-8,3.582-8,8s3.582,8,8,8S25,35.418,25,31z M21,31c0,2.21-1.791,4-4,4   s-4-1.79-4-4c0-2.209,1.791-4,4-4S21,28.791,21,31z"/>
</g>
</svg>