<?xml version="1.0" encoding="utf-8"?><!-- Generator: Adobe Illustrator 15.0.0, SVG Export Plug-In . SVG Version: 6.00 Build 0)  --><!DOCTYPE svg PUBLIC "-//W3C//DTD SVG 1.1//EN" "http://www.w3.org/Graphics/SVG/1.1/DTD/svg11.dtd"><svg xmlns="http://www.w3.org/2000/svg" xmlns:xlink="http://www.w3.org/1999/xlink" version="1.1" id="Слой_1" x="0px" y="0px" width="48px" height="48px" viewBox="0 0 48 48" enable-background="new 0 0 48 48" xml:space="preserve">
<g>
	<polygon fill="#891212" points="23.5,27.5 5.5,34.5 5.5,19.5 23.5,12.5  "/>
	<polygon fill="#891212" points="41.5,19.5 23.5,12.5 23.5,27.5 41.5,34.5  "/>
</g>
<circle fill="#891212" cx="23" cy="18" r="2.5"/>
<path fill="#90CAF9" d="M23,5.5c-6.903,0-12.5,5.597-12.5,12.5c0,6.902,5.597,12.5,12.5,12.5c6.902,0,12.5-5.598,12.5-12.5  C35.5,11.097,29.902,5.5,23,5.5z M23,20.303c-1.272,0-2.303-1.03-2.303-2.303s1.03-2.303,2.303-2.303  c1.273,0,2.303,1.03,2.303,2.303S24.271,20.303,23,20.303z"/>
<g>
	<path fill="#CFE8F9" d="M20.177,19.343L12.5,24.844c0.878,1.316,2.516,2.938,4.188,4l5.429-7.533   C21.185,21.017,20.458,20.281,20.177,19.343z"/>
	<path fill="#CFE8F9" d="M29.77,7.501l-5.966,8.163c0.938,0.267,1.679,0.977,1.99,1.895l8.118-5.648   C32.911,10.122,31.484,8.609,29.77,7.501z"/>
</g>
<polygon fill="#F44336" points="23.5,26.5 5.5,19.5 5.5,34.5 23.5,41.5 "/>
<polygon fill="#C62828" points="41.5,34.5 23.5,41.5 23.5,26.5 41.5,19.5 "/>
<path fill="#1E88E5" d="M23,14.5c-1.933,0-3.5,1.567-3.5,3.5s1.567,3.5,3.5,3.5c1.934,0,3.5-1.567,3.5-3.5S24.934,14.5,23,14.5z   M23,19.5c-0.828,0-1.5-0.672-1.5-1.5s0.672-1.5,1.5-1.5s1.5,0.672,1.5,1.5S23.828,19.5,23,19.5z"/>
</svg>