<?xml version="1.0" encoding="utf-8"?><!-- Generator: Adobe Illustrator 15.0.0, SVG Export Plug-In . SVG Version: 6.00 Build 0)  --><!DOCTYPE svg PUBLIC "-//W3C//DTD SVG 1.1//EN" "http://www.w3.org/Graphics/SVG/1.1/DTD/svg11.dtd"><svg xmlns="http://www.w3.org/2000/svg" xmlns:xlink="http://www.w3.org/1999/xlink" version="1.1" id="Слой_1" x="0px" y="0px" width="48px" height="48px" viewBox="0 0 48 48" enable-background="new 0 0 48 48" xml:space="preserve">
<path fill="#3F51B5" d="M42,16c0,0.553-0.447,2-1,2H7c-0.552,0-1-1.447-1-2V7c0-0.553,0.448-1,1-1h34c0.553,0,1,0.447,1,1V16z"/>
<rect x="6" y="14" fill="#BBDEFB" width="36" height="28"/>
<circle fill="#FFEB3B" cx="10" cy="10" r="2"/>
<circle fill="#8BC34A" cx="16" cy="10" r="2"/>
<path fill="#FAFAFA" d="M40,10c0-0.553-0.447-1-1-1H22c-0.553,0-1,0.447-1,1l0,0c0,0.553,0.447,1,1,1h17C39.553,11,40,10.553,40,10  L40,10z"/>
</svg>