<?xml version="1.0" encoding="utf-8"?><!-- Generator: Adobe Illustrator 15.0.0, SVG Export Plug-In . SVG Version: 6.00 Build 0)  --><!DOCTYPE svg PUBLIC "-//W3C//DTD SVG 1.1//EN" "http://www.w3.org/Graphics/SVG/1.1/DTD/svg11.dtd"><svg xmlns="http://www.w3.org/2000/svg" xmlns:xlink="http://www.w3.org/1999/xlink" version="1.1" id="Слой_1" x="0px" y="0px" width="48px" height="48px" viewBox="0 0 48 48" enable-background="new 0 0 48 48" xml:space="preserve">
<g>
	<polygon fill="#90CAF9" points="32,41 4,41 4,3 23,3 32,12  "/>
	<path fill="#90CAF9" d="M36,28c0,4.971-4.029,9-9,9c-4.971,0-9-4.029-9-9s4.029-9,9-9C31.971,19,36,23.029,36,28"/>
</g>
<polygon fill="#E1F5FE" points="30.5,13 22,13 22,4.5 "/>
<g>
	
		<rect x="37.349" y="33.767" transform="matrix(0.7071 -0.7071 0.7071 0.7071 -16.7627 39.0546)" fill="#616161" width="2.826" height="11.99"/>
	<path fill="#616161" d="M27,17c-6.075,0-11,4.925-11,11s4.925,11,11,11s11-4.925,11-11S33.075,17,27,17z M27,37   c-4.971,0-9-4.029-9-9s4.029-9,9-9c4.971,0,9,4.029,9,9S31.971,37,27,37z"/>
</g>
<rect x="38.517" y="36.587" transform="matrix(0.7071 -0.7071 0.7071 0.7071 -17.2467 40.2231)" fill="#37474F" width="2.826" height="8.686"/>
</svg>