<?xml version="1.0" encoding="utf-8"?><!-- Generator: Adobe Illustrator 15.0.0, SVG Export Plug-In . SVG Version: 6.00 Build 0)  --><!DOCTYPE svg PUBLIC "-//W3C//DTD SVG 1.1//EN" "http://www.w3.org/Graphics/SVG/1.1/DTD/svg11.dtd"><svg xmlns="http://www.w3.org/2000/svg" xmlns:xlink="http://www.w3.org/1999/xlink" version="1.1" id="Слой_1" x="0px" y="0px" width="48px" height="48px" viewBox="0 0 48 48" enable-background="new 0 0 48 48" xml:space="preserve">
<rect x="8" y="10" fill="#546E7A" width="36" height="26"/>
<rect x="10" y="12" fill="#BBDEFB" width="32" height="21"/>
<g>
	<rect x="23" y="36" fill="#455A64" width="6" height="3"/>
	<path fill="#455A64" d="M35,39c-2,0-16,0-18,0s-2,2-2,2v1h22v-1C37,41,37,39,35,39z"/>
</g>
<rect x="4" y="4" fill="#3F51B5" width="18" height="40"/>
<g>
	<rect x="6" y="6" fill="#9FA8DA" width="14" height="4"/>
	<rect x="6" y="12" fill="#9FA8DA" width="14" height="2"/>
	<rect x="6" y="16" fill="#9FA8DA" width="14" height="2"/>
	<rect x="6" y="20" fill="#9FA8DA" width="14" height="2"/>
	<rect x="6" y="24" fill="#9FA8DA" width="14" height="2"/>
</g>
<circle fill="#CDDC39" cx="13" cy="38" r="2"/>
</svg>