<svg width="1000" height="1000">
    <polygon points=" 200,200 200,200 226,200 252,200 278,200 304,200 330,200 356,200 382,200 408,200 434,200 460,200 486,200 512,200 538,200 564,200 590,200 616,200 642,200 668,200 694,200 720,200 746,200 772,200 798,200 824,200 850,200 876,200 902,200 928,200 954,200 980,200 980,200 979,215 953,217 927,219 901,222 876,206 850,206 824,206 798,206 772,207 746,207 720,207 694,208 668,208 642,209 616,209 590,210 564,211 538,212 512,213 486,214 460,215 434,217 408,219 382,222 356,226 356,226 330,231 304,239 278,252 278,252 252,278 252,278 239,304 231,330 226,356 226,356 222,382 219,408 217,434 215,460 214,486 213,512 212,538 211,564 210,590 209,616 209,642 208,668 208,694 207,720 207,746 207,772 206,798 206,824 206,850 206,876 222,901 219,927 217,953 215,979 200,980 200,980 200,954 200,928 200,902 200,876 200,850 200,824 200,798 200,772 200,746 200,720 200,694 200,668 200,642 200,616 200,590 200,564 200,538 200,512 200,486 200,460 200,434 200,408 200,382 200,356 200,330 200,304 200,278 200,252 200,226 " fill="#9e0142"/>
    <polygon points=" 356,226 382,222 408,219 434,217 460,215 486,214 512,213 538,212 564,211 590,210 616,209 642,209 668,208 694,208 720,207 746,207 772,207 798,206 824,206 850,206 876,206 888,214 876,226 888,236 875,225 849,251 824,228 798,229 772,230 746,232 720,233 694,235 668,237 642,239 616,242 590,245 564,248 538,252 538,252 512,256 486,261 460,267 434,275 425,278 408,284 382,296 369,304 356,312 335,330 330,335 312,356 304,369 296,382 284,408 278,425 275,434 267,460 261,486 256,512 252,538 252,538 248,564 245,590 242,616 239,642 237,668 235,694 233,720 232,746 230,772 229,798 228,824 251,849 225,875 236,888 226,876 214,888 206,876 206,850 206,824 206,798 207,772 207,746 207,720 208,694 208,668 209,642 209,616 210,590 211,564 212,538 213,512 214,486 215,460 217,434 219,408 222,382 226,356 226,356 231,330 239,304 252,278 252,278 278,252 278,252 304,239 330,231 356,226 " fill="#d53e4f"/>
    <polygon points=" 888,236 876,226 888,214 901,222 927,219 953,217 979,215 980,226 980,243 954,244 928,246 902,248 " fill="#f46d43"/>
    <polygon points=" 538,252 564,248 590,245 616,242 642,239 668,237 694,235 720,233 746,232 772,230 798,229 824,228 836,239 850,252 824,254 798,256 772,259 746,261 720,265 694,268 668,272 642,276 633,278 616,281 590,286 564,292 538,300 525,304 512,308 486,318 460,330 460,330 434,344 416,356 408,362 385,382 382,385 362,408 356,416 344,434 330,460 330,460 318,486 308,512 304,525 300,538 292,564 286,590 281,616 278,633 276,642 272,668 268,694 265,720 261,746 259,772 256,798 254,824 252,850 239,836 228,824 229,798 230,772 232,746 233,720 235,694 237,668 239,642 242,616 245,590 248,564 252,538 252,538 256,512 261,486 267,460 275,434 278,425 284,408 296,382 304,369 312,356 330,335 335,330 356,312 369,304 382,296 408,284 425,278 434,275 460,267 486,261 512,256 538,252 " fill="#f46d43"/>
    <polygon points=" 850,252 836,239 849,251 875,225 902,248 928,246 954,244 980,243 980,252 980,278 980,278 954,280 928,283 902,286 876,290 850,293 824,297 798,301 785,304 772,306 746,311 720,317 694,323 668,330 668,330 642,337 616,346 590,356 590,356 564,367 538,380 534,382 512,395 492,408 486,412 460,434 460,434 434,460 434,460 412,486 408,492 395,512 382,534 380,538 367,564 356,590 356,590 346,616 337,642 330,668 330,668 323,694 317,720 311,746 306,772 304,785 301,798 297,824 293,850 290,876 286,902 283,928 280,954 278,980 278,980 252,980 243,980 244,954 246,928 248,902 225,875 251,849 239,836 252,850 254,824 256,798 259,772 261,746 265,720 268,694 272,668 276,642 278,633 281,616 286,590 292,564 300,538 304,525 308,512 318,486 330,460 330,460 344,434 356,416 362,408 382,385 385,382 408,362 416,356 434,344 460,330 460,330 486,318 512,308 525,304 538,300 564,292 590,286 616,281 633,278 642,276 668,272 694,268 720,265 746,261 772,259 798,256 824,254 " fill="#fdae61"/>
    <polygon points=" 785,304 798,301 824,297 850,293 876,290 902,286 928,283 954,280 980,278 980,304 980,320 954,324 928,329 922,330 902,333 876,339 850,344 824,350 802,356 798,357 772,364 746,372 720,380 716,382 694,390 668,400 651,408 642,412 616,425 601,434 590,440 564,458 561,460 538,478 528,486 512,501 501,512 486,528 478,538 460,561 458,564 440,590 434,601 425,616 412,642 408,651 400,668 390,694 382,716 380,720 372,746 364,772 357,798 356,802 350,824 344,850 339,876 333,902 330,922 329,928 324,954 320,980 304,980 278,980 280,954 283,928 286,902 290,876 293,850 297,824 301,798 304,785 306,772 311,746 317,720 323,694 330,668 330,668 337,642 346,616 356,590 356,590 367,564 380,538 382,534 395,512 408,492 412,486 434,460 434,460 460,434 460,434 486,412 492,408 512,395 534,382 538,380 564,367 590,356 590,356 616,346 642,337 668,330 668,330 694,323 720,317 746,311 772,306 " fill="#fee08b"/>
    <polygon points=" 922,330 928,329 954,324 980,320 980,330 980,356 980,372 954,378 939,382 928,384 902,391 876,399 850,406 846,408 824,415 798,424 774,434 772,435 746,446 720,458 717,460 694,472 670,486 668,487 642,504 631,512 616,523 598,538 590,544 569,564 564,569 544,590 538,598 523,616 512,631 504,642 487,668 486,670 472,694 460,717 458,720 446,746 435,772 434,774 424,798 415,824 408,846 406,850 399,876 391,902 384,928 382,939 378,954 372,980 356,980 330,980 320,980 324,954 329,928 330,922 333,902 339,876 344,850 350,824 356,802 357,798 364,772 372,746 380,720 382,716 390,694 400,668 408,651 412,642 425,616 434,601 440,590 458,564 460,561 478,538 486,528 501,512 512,501 528,486 538,478 561,460 564,458 590,440 601,434 616,425 642,412 651,408 668,400 694,390 716,382 720,380 746,372 772,364 798,357 802,356 824,350 850,344 876,339 902,333 " fill="#ffffbf"/>
    <polygon points=" 939,382 954,378 980,372 980,382 980,408 980,434 980,441 954,450 928,459 925,460 902,468 876,479 859,486 850,490 824,502 804,512 798,515 772,529 758,538 746,545 720,562 718,564 694,581 683,590 668,603 653,616 642,626 626,642 616,653 603,668 590,683 581,694 564,718 562,720 545,746 538,758 529,772 515,798 512,804 502,824 490,850 486,859 479,876 468,902 460,925 459,928 450,954 441,980 434,980 408,980 382,980 372,980 378,954 382,939 384,928 391,902 399,876 406,850 408,846 415,824 424,798 434,774 435,772 446,746 458,720 460,717 472,694 486,670 487,668 504,642 512,631 523,616 538,598 544,590 564,569 569,564 590,544 598,538 616,523 631,512 642,504 668,487 670,486 694,472 717,460 720,458 746,446 772,435 774,434 798,424 824,415 846,408 850,406 876,399 902,391 928,384 " fill="#e6f598"/>
    <polygon points=" 925,460 928,459 954,450 980,441 980,460 980,486 980,512 980,526 954,538 954,538 928,550 902,563 900,564 876,577 853,590 850,592 824,608 812,616 798,626 776,642 772,645 746,666 744,668 720,690 715,694 694,715 690,720 668,744 666,746 645,772 642,776 626,798 616,812 608,824 592,850 590,853 577,876 564,900 563,902 550,928 538,954 538,954 526,980 512,980 486,980 460,980 441,980 450,954 459,928 460,925 468,902 479,876 486,859 490,850 502,824 512,804 515,798 529,772 538,758 545,746 562,720 564,718 581,694 590,683 603,668 616,653 626,642 642,626 653,616 668,603 683,590 694,581 718,564 720,562 746,545 758,538 772,529 798,515 804,512 824,502 850,490 859,486 876,479 902,468 " fill="#abdda4"/>
    <polygon points=" 954,538 980,526 980,538 980,564 980,590 980,616 980,642 980,654 956,668 954,669 928,686 917,694 902,704 881,720 876,724 850,744 848,746 824,767 819,772 798,792 792,798 772,819 767,824 746,848 744,850 724,876 720,881 704,902 694,917 686,928 669,954 668,956 654,980 642,980 616,980 590,980 564,980 538,980 526,980 538,954 538,954 550,928 563,902 564,900 577,876 590,853 592,850 608,824 616,812 626,798 642,776 645,772 666,746 668,744 690,720 694,715 715,694 720,690 744,668 746,666 772,645 776,642 798,626 812,616 824,608 850,592 853,590 876,577 900,564 902,563 928,550 954,538 " fill="#66c2a5"/>
    <polygon points=" 956,668 980,654 980,668 980,694 980,720 980,746 980,772 980,798 980,824 980,850 980,876 980,902 980,928 980,954 980,979 979,980 954,980 928,980 902,980 876,980 850,980 824,980 798,980 772,980 746,980 720,980 694,980 668,980 654,980 668,956 669,954 686,928 694,917 704,902 720,881 724,876 744,850 746,848 767,824 772,819 792,798 798,792 819,772 824,767 848,746 850,744 876,724 881,720 902,704 917,694 928,686 954,669 " fill="#3288bd"/>
    <polygon points=" 222,901 214,888 226,876 236,888 248,902 246,928 244,954 243,980 226,980 215,979 217,953 219,927 " fill="#f46d43"/>
    <polygon points=" 979,980 980,979 980,980 980,980 " fill="#5e4fa2"/>
    <polyline points="888,236 875,225 849,251 " stroke-width="3" fill="none" stroke="black"/>
    <polyline points="251,849 225,875 " stroke-width="3" fill="none" stroke="black"/>
    <polyline points="980,243 954,244 928,246 902,248 " stroke-width="3" fill="none" stroke="black"/>
    <polyline points="836,239 850,252 824,254 798,256 772,259 746,261 720,265 694,268 668,272 642,276 633,278 616,281 590,286 564,292 538,300 525,304 512,308 486,318 460,330 460,330 434,344 416,356 408,362 385,382 382,385 362,408 356,416 344,434 330,460 330,460 318,486 308,512 304,525 300,538 292,564 286,590 281,616 278,633 276,642 272,668 268,694 265,720 261,746 259,772 256,798 254,824 252,850 " stroke-width="3" fill="none" stroke="black"/>
    <polyline points="850,252 836,239 849,251 875,225 902,248 928,246 954,244 980,243 " stroke-width="3" fill="none" stroke="black"/>
    <polyline points="243,980 244,954 246,928 248,902 225,875 251,849 239,836 252,850 254,824 256,798 259,772 261,746 265,720 268,694 272,668 276,642 278,633 281,616 286,590 292,564 300,538 304,525 308,512 318,486 330,460 330,460 344,434 356,416 362,408 382,385 385,382 408,362 416,356 434,344 460,330 460,330 486,318 512,308 525,304 538,300 564,292 590,286 616,281 633,278 642,276 668,272 694,268 720,265 746,261 772,259 798,256 824,254 " stroke-width="3" fill="none" stroke="black"/>
    <polyline points="236,888 248,902 246,928 244,954 243,980 " stroke-width="3" fill="none" stroke="black"/>
</svg>
