<?xml version="1.0" encoding="UTF-8" standalone="no"?>
<!-- Created by diasvg.py -->
<svg width="83.584cm" height="55.351cm" viewBox="47.425 -6.417 131.009 48.934"
 xmlns="http://www.w3.org/2000/svg"
 xmlns:xlink="http://www.w3.org/1999/xlink">
<rect x="94.903" y="44.109" width="11.250" height="4.700" fill="#FFFFFF" stroke="none" stroke-width="0"/>
<rect x="94.903" y="44.109" width="11.250" height="4.700" fill="none" stroke="#000000" stroke-width="0.250" />
<text x="100.403" y="45.859"  fill="#000000" text-anchor="middle" font-size="0.9" font-family="serif" font-style="normal" font-weight="400">
Lookup +</text>
<text x="100.403" y="47.759"  fill="#000000" text-anchor="middle" font-size="0.9" font-family="serif" font-style="normal" font-weight="400">
Interpolation</text>
<rect x="95.605" y="17.794" width="11.250" height="2.850" fill="#FFFFFF" stroke="none" stroke-width="0"/>
<rect x="95.605" y="17.794" width="11.250" height="2.850" fill="none" stroke="#000000" stroke-width="0.250" />
<text x="101.105" y="19.444"  fill="#000000" text-anchor="middle" font-size="0.9" font-family="serif" font-style="normal" font-weight="400">
Report Generator</text>
<rect x="116.084" y="15.707" width="14.800" height="2.600" fill="#FFFFFF" stroke="none" stroke-width="0"/>
<rect x="116.084" y="15.707" width="14.800" height="2.600" fill="none" stroke="#000000" stroke-width="0.250" />
<text x="123.784" y="17.257"  fill="#000000" text-anchor="middle" font-size="0.9" font-family="serif" font-style="normal" font-weight="400">
Device Characterizer</text>
<ellipse cx="73.939" cy="33.497" rx="2.900" ry="1.950" fill="#FFFFFF" stroke="none"  /><ellipse cx="73.939" cy="33.497" rx="2.900" ry="1.950" fill="none" stroke="#000000"  stroke-width="0.250" /><text x="74.089" y="33.847"  fill="#000000" text-anchor="middle" font-size="0.9" font-family="serif" font-style="normal" font-weight="400">
&#915; Code</text>
<rect x="68.314" y="25.685" width="11.250" height="2.850" fill="#FFFFFF" stroke="none" stroke-width="0"/>
<rect x="68.314" y="25.685" width="11.250" height="2.850" fill="none" stroke="#000000" stroke-width="0.250" />
<text x="73.814" y="27.435"  fill="#000000" text-anchor="middle" font-size="0.9" font-family="serif" font-style="normal" font-weight="400">
&#915; Compiler</text>
<ellipse cx="73.939" cy="20.723" rx="2.900" ry="1.950" fill="#FFFFFF" stroke="none"  /><ellipse cx="73.939" cy="20.723" rx="2.900" ry="1.950" fill="none" stroke="#000000"  stroke-width="0.250" /><text x="73.939" y="21.073"  fill="#000000" text-anchor="middle" font-size="0.9" font-family="serif" font-style="normal" font-weight="400">
Equations</text>
<rect x="68.314" y="12.911" width="11.250" height="2.850" fill="#FFFFFF" stroke="none" stroke-width="0"/>
<rect x="68.314" y="12.911" width="11.250" height="2.850" fill="none" stroke="#000000" stroke-width="0.250" />
<text x="73.814" y="14.661"  fill="#000000" text-anchor="middle" font-size="0.9" font-family="serif" font-style="normal" font-weight="400">
Math Engine</text>
<rect x="67.984" y="-1.078" width="11.250" height="2.850" fill="#FFFFFF" stroke="none" stroke-width="0"/>
<rect x="67.984" y="-1.078" width="11.250" height="2.850" fill="none" stroke="#000000" stroke-width="0.250" />
<text x="73.534" y="0.672"  fill="#000000" text-anchor="middle" font-size="0.9" font-family="serif" font-style="normal" font-weight="400">
Schematic Editor</text>
<ellipse cx="63.546" cy="6.535" rx="2.900" ry="1.950" fill="#FFFFFF" stroke="none"  /><ellipse cx="63.546" cy="6.535" rx="2.900" ry="1.950" fill="none" stroke="#000000"  stroke-width="0.250" /><text x="63.546" y="6.885"  fill="#000000" text-anchor="middle" font-size="0.9" font-family="serif" font-style="normal" font-weight="400">
Netlist</text>
<ellipse cx="123.557" cy="-4.392" rx="5.625" ry="1.900" fill="#FFFFFF" stroke="none"  /><ellipse cx="123.557" cy="-4.392" rx="5.625" ry="1.900" fill="none" stroke="#000000"  stroke-width="0.250" /><text x="123.432" y="-4.042"  fill="#000000" text-anchor="middle" font-size="0.9" font-family="serif" font-style="normal" font-weight="400">
Device Models</text>
<ellipse cx="85.125" cy="6.460" rx="2.900" ry="1.950" fill="#FFFFFF" stroke="none"  /><ellipse cx="85.125" cy="6.460" rx="2.900" ry="1.950" fill="none" stroke="#000000"  stroke-width="0.250" /><text x="85.225" y="6.910"  fill="#000000" text-anchor="middle" font-size="0.9" font-family="serif" font-style="normal" font-weight="400">
Guidance</text>
<ellipse cx="77.925" cy="6.460" rx="2.900" ry="1.950" fill="#FFFFFF" stroke="none"  /><ellipse cx="77.925" cy="6.460" rx="2.900" ry="1.950" fill="none" stroke="#000000"  stroke-width="0.250" /><text x="77.875" y="6.660"  fill="#000000" text-anchor="middle" font-size="0.9" font-family="serif" font-style="normal" font-weight="400">
Constraints</text>
<ellipse cx="70.725" cy="6.610" rx="2.900" ry="1.950" fill="#FFFFFF" stroke="none"  /><ellipse cx="70.725" cy="6.610" rx="2.900" ry="1.950" fill="none" stroke="#000000"  stroke-width="0.250" /><text x="70.525" y="6.960"  fill="#000000" text-anchor="middle" font-size="0.9" font-family="serif" font-style="normal" font-weight="400">
Spec</text>
<ellipse cx="107.927" cy="1.656" rx="4.400" ry="1.850" fill="#FFFFFF" stroke="none"  /><ellipse cx="107.927" cy="1.656" rx="4.400" ry="1.850" fill="none" stroke="#000000"  stroke-width="0.250" /><text x="107.927" y="1.806"  fill="#000000" text-anchor="middle" font-size="0.9" font-family="serif" font-style="normal" font-weight="400">
PDF Report</text>
<ellipse cx="95.717" cy="6.535" rx="4.150" ry="1.925" fill="#FFFFFF" stroke="none"  /><ellipse cx="95.717" cy="6.535" rx="4.150" ry="1.925" fill="none" stroke="#000000"  stroke-width="0.250" /><text x="95.767" y="6.760"  fill="#000000" text-anchor="middle" font-size="0.9" font-family="serif" font-style="normal" font-weight="400">
Annotations</text>
<line x1="73.609" y1="1.772" x2="63.546" y2="4.585" stroke="#000000" stroke-width="0.100" />
<polygon fill="#000000" stroke="none" stroke-width="0.100" points="63.546,4.585 65.338,3.565 64.991,4.181 65.607,4.528 "/>
<polygon fill="none" stroke="#000000" stroke-width="0.100"  points="63.546,4.585 65.338,3.565 64.991,4.181 65.607,4.528 "/>
<line x1="73.609" y1="1.772" x2="70.725" y2="4.660" stroke="#000000" stroke-width="0.100" />
<polygon fill="#000000" stroke="none" stroke-width="0.100" points="70.725,4.660 71.785,2.892 71.785,3.599 72.492,3.598 "/>
<polygon fill="none" stroke="#000000" stroke-width="0.100"  points="70.725,4.660 71.785,2.892 71.785,3.599 72.492,3.598 "/>
<line x1="73.609" y1="1.772" x2="77.925" y2="4.510" stroke="#000000" stroke-width="0.100" />
<polygon fill="#000000" stroke="none" stroke-width="0.100" points="77.925,4.510 75.969,3.861 76.659,3.707 76.504,3.017 "/>
<polygon fill="none" stroke="#000000" stroke-width="0.100"  points="77.925,4.510 75.969,3.861 76.659,3.707 76.504,3.017 "/>
<line x1="73.609" y1="1.772" x2="85.125" y2="4.510" stroke="#000000" stroke-width="0.100" />
<polygon fill="#000000" stroke="none" stroke-width="0.100" points="85.125,4.510 83.064,4.534 83.666,4.163 83.295,3.561 "/>
<polygon fill="none" stroke="#000000" stroke-width="0.100"  points="85.125,4.510 83.064,4.534 83.666,4.163 83.295,3.561 "/>
<line x1="92.782" y1="5.174" x2="79.234" y2="0.347" stroke="#000000" stroke-width="0.100" />
<polygon fill="#000000" stroke="none" stroke-width="0.100" points="79.234,0.347 81.286,0.548 80.647,0.851 80.950,1.490 "/>
<polygon fill="none" stroke="#000000" stroke-width="0.100"  points="79.234,0.347 81.286,0.548 80.647,0.851 80.950,1.490 "/>
<line x1="101.230" y1="17.794" x2="95.717" y2="8.460" stroke="#000000" stroke-width="0.100" />
<polygon fill="#000000" stroke="none" stroke-width="0.100" points="95.717,8.460 97.164,9.928 96.480,9.752 96.303,10.437 "/>
<polygon fill="none" stroke="#000000" stroke-width="0.100"  points="95.717,8.460 97.164,9.928 96.480,9.752 96.303,10.437 "/>
<line x1="101.230" y1="17.794" x2="107.927" y2="3.506" stroke="#000000" stroke-width="0.100" />
<polygon fill="#000000" stroke="none" stroke-width="0.100" points="107.927,3.506 107.531,5.529 107.290,4.864 106.625,5.105 "/>
<polygon fill="none" stroke="#000000" stroke-width="0.100"  points="107.927,3.506 107.531,5.529 107.290,4.864 106.625,5.105 "/>
<line x1="100.835" y1="24.580" x2="101.230" y2="20.644" stroke="#000000" stroke-width="0.100" />
<polygon fill="#000000" stroke="none" stroke-width="0.100" points="101.230,20.644 101.528,22.684 101.080,22.137 100.533,22.584 "/>
<polygon fill="none" stroke="#000000" stroke-width="0.100"  points="101.230,20.644 101.528,22.684 101.080,22.137 100.533,22.584 "/>
<line x1="100.313" y1="35.064" x2="100.528" y2="44.109" stroke="#000000" stroke-width="0.100" />
<polygon fill="#000000" stroke="none" stroke-width="0.100" points="100.528,44.109 99.981,42.121 100.493,42.609 100.981,42.098 "/>
<polygon fill="none" stroke="#000000" stroke-width="0.100"  points="100.528,44.109 99.981,42.121 100.493,42.609 100.981,42.098 "/>
<line x1="123.557" y1="-2.492" x2="123.484" y2="15.707" stroke="#000000" stroke-width="0.100" />
<polygon fill="#000000" stroke="none" stroke-width="0.100" points="123.484,15.707 122.992,13.705 123.490,14.207 123.992,13.709 "/>
<polygon fill="none" stroke="#000000" stroke-width="0.100"  points="123.484,15.707 122.992,13.705 123.490,14.207 123.992,13.709 "/>
<line x1="63.546" y1="8.485" x2="73.939" y2="12.911" stroke="#000000" stroke-width="0.100" />
<polygon fill="#000000" stroke="none" stroke-width="0.100" points="73.939,12.911 71.903,12.587 72.559,12.323 72.295,11.667 "/>
<polygon fill="none" stroke="#000000" stroke-width="0.100"  points="73.939,12.911 71.903,12.587 72.559,12.323 72.295,11.667 "/>
<line x1="70.725" y1="8.560" x2="73.939" y2="12.911" stroke="#000000" stroke-width="0.100" />
<polygon fill="#000000" stroke="none" stroke-width="0.100" points="73.939,12.911 72.348,11.599 73.048,11.704 73.153,11.005 "/>
<polygon fill="none" stroke="#000000" stroke-width="0.100"  points="73.939,12.911 72.348,11.599 73.048,11.704 73.153,11.005 "/>
<line x1="77.925" y1="8.410" x2="73.939" y2="12.911" stroke="#000000" stroke-width="0.100" />
<polygon fill="#000000" stroke="none" stroke-width="0.100" points="73.939,12.911 74.891,11.082 74.933,11.788 75.639,11.745 "/>
<polygon fill="none" stroke="#000000" stroke-width="0.100"  points="73.939,12.911 74.891,11.082 74.933,11.788 75.639,11.745 "/>
<line x1="85.125" y1="8.410" x2="73.939" y2="12.911" stroke="#000000" stroke-width="0.100" />
<polygon fill="#000000" stroke="none" stroke-width="0.100" points="73.939,12.911 75.608,11.700 75.330,12.351 75.981,12.628 "/>
<polygon fill="none" stroke="#000000" stroke-width="0.100"  points="73.939,12.911 75.608,11.700 75.330,12.351 75.981,12.628 "/>
<line x1="73.939" y1="15.761" x2="73.939" y2="18.773" stroke="#000000" stroke-width="0.100" />
<polygon fill="#000000" stroke="none" stroke-width="0.100" points="73.939,18.773 73.439,16.773 73.939,17.273 74.439,16.773 "/>
<polygon fill="none" stroke="#000000" stroke-width="0.100"  points="73.939,18.773 73.439,16.773 73.939,17.273 74.439,16.773 "/>
<line x1="73.939" y1="22.673" x2="73.939" y2="25.685" stroke="#000000" stroke-width="0.100" />
<polygon fill="#000000" stroke="none" stroke-width="0.100" points="73.939,25.685 73.439,23.685 73.939,24.185 74.439,23.685 "/>
<polygon fill="none" stroke="#000000" stroke-width="0.100"  points="73.939,25.685 73.439,23.685 73.939,24.185 74.439,23.685 "/>
<line x1="73.939" y1="28.535" x2="73.939" y2="31.547" stroke="#000000" stroke-width="0.100" />
<polygon fill="#000000" stroke="none" stroke-width="0.100" points="73.939,31.547 73.439,29.547 73.939,30.047 74.439,29.547 "/>
<polygon fill="none" stroke="#000000" stroke-width="0.100"  points="73.939,31.547 73.439,29.547 73.939,30.047 74.439,29.547 "/>
<line x1="73.939" y1="35.447" x2="73.939" y2="38.459" stroke="#000000" stroke-width="0.100" />
<polygon fill="#000000" stroke="none" stroke-width="0.100" points="73.939,38.459 73.439,36.459 73.939,36.959 74.439,36.459 "/>
<polygon fill="none" stroke="#000000" stroke-width="0.100"  points="73.939,38.459 73.439,36.459 73.939,36.959 74.439,36.459 "/>
<rect x="68.314" y="38.459" width="11.250" height="10.300" fill="#FFFFFF" stroke="none" stroke-width="0"/>
<rect x="68.314" y="38.459" width="11.250" height="10.300" fill="none" stroke="#000000" stroke-width="0.250" />
<text x="73.864" y="40.109"  fill="#000000" text-anchor="middle" font-size="0.9" font-family="serif" font-style="normal" font-weight="400">
&#915; Machine</text>
<rect x="68.914" y="41.209" width="9.700" height="2.300" fill="#FFFFFF" stroke="none" stroke-width="0"/>
<rect x="68.914" y="41.209" width="9.700" height="2.300" fill="none" stroke="#000000" stroke-width="0.250" />
<rect x="69.014" y="45.309" width="9.700" height="2.300" fill="#FFFFFF" stroke="none" stroke-width="0"/>
<rect x="69.014" y="45.309" width="9.700" height="2.300" fill="none" stroke="#000000" stroke-width="0.250" />
<text x="73.514" y="42.659"  fill="#000000" text-anchor="middle" font-size="0.9" font-family="serif" font-style="normal" font-weight="400">
Search</text>
<text x="73.714" y="46.709"  fill="#000000" text-anchor="middle" font-size="0.9" font-family="serif" font-style="normal" font-weight="400">
Evaluate</text>
<ellipse cx="100.835" cy="30.455" rx="8.300" ry="5.875" fill="#FFFFFF" stroke="none"  /><ellipse cx="100.835" cy="30.455" rx="8.300" ry="5.875" fill="none" stroke="#000000"  stroke-width="0.250" /><ellipse cx="100.313" cy="32.029" rx="3.791" ry="3.035" fill="#FFFFFF" stroke="none"  /><ellipse cx="100.313" cy="32.029" rx="3.791" ry="3.035" fill="none" stroke="#000000"  stroke-width="0.250" /><text x="100.087" y="32.942"  fill="#000000" text-anchor="middle" font-size="0.9" font-family="serif" font-style="normal" font-weight="400">
LUT</text>
<text x="96.124" y="27.267"  fill="#000000" text-anchor="start" font-size="0.9" font-family="serif" font-style="normal" font-weight="400">
Hierarchical Database</text>
<line x1="123.484" y1="18.307" x2="104.104" y2="32.029" stroke="#000000" stroke-width="0.100" />
<polygon fill="#000000" stroke="none" stroke-width="0.100" points="104.104,32.029 105.447,30.465 105.328,31.162 106.025,31.281 "/>
<polygon fill="none" stroke="#000000" stroke-width="0.100"  points="104.104,32.029 105.447,30.465 105.328,31.162 106.025,31.281 "/>
<line x1="94.903" y1="46.459" x2="78.714" y2="46.459" stroke="#000000" stroke-width="0.100" />
<polygon fill="#000000" stroke="none" stroke-width="0.100" points="78.714,46.459 80.714,45.959 80.214,46.459 80.714,46.959 "/>
<polygon fill="none" stroke="#000000" stroke-width="0.100"  points="78.714,46.459 80.714,45.959 80.214,46.459 80.714,46.959 "/>
<line x1="78.614" y1="42.359" x2="92.535" y2="30.455" stroke="#000000" stroke-width="0.100" />
<polygon fill="#000000" stroke="none" stroke-width="0.100" points="92.535,30.455 91.340,32.135 91.395,31.430 90.690,31.375 "/>
<polygon fill="none" stroke="#000000" stroke-width="0.100"  points="92.535,30.455 91.340,32.135 91.395,31.430 90.690,31.375 "/>
<path stroke="#000000" fill="none" stroke-width="0.100"  d ="M 74.290,45.199 A 0.880,0.880 0 0,0 73.864,45.309 "/>
<polygon fill="#000000" stroke="none" stroke-width="0.100" points="73.976,45.309 74.476,45.059 74.351,45.309 74.476,45.559 "/>
<polygon fill="none" stroke="#000000" stroke-width="0.100"  points="73.976,45.309 74.476,45.059 74.351,45.309 74.476,45.559 "/>
<ellipse cx="52.197" cy="0.330" rx="4.647" ry="2.217" fill="#FFFFFF" stroke="none"  /><ellipse cx="52.197" cy="0.330" rx="4.647" ry="2.217" fill="none" stroke="#000000"  stroke-width="0.250" /><text x="48.519" y="0.612"  fill="#000000" text-anchor="start" font-size="0.9" font-family="serif" font-style="normal" font-weight="400">
Templates Library</text>
<line x1="56.844" y1="0.330" x2="67.984" y2="0.347" stroke="#000000" stroke-width="0.100" />
<polygon fill="#000000" stroke="none" stroke-width="0.100" points="67.984,0.347 65.983,0.844 66.484,0.345 65.985,-0.156 "/>
<polygon fill="none" stroke="#000000" stroke-width="0.100"  points="67.984,0.347 65.983,0.844 66.484,0.345 65.985,-0.156 "/>
</svg>
