<?xml version="1.0" encoding="UTF-8" standalone="no"?>
<!-- Created by diasvg.py -->
<svg width="32.249cm" height="40.418cm" viewBox="7.935 0.649 40.184 41.067"
 xmlns="http://www.w3.org/2000/svg"
 xmlns:xlink="http://www.w3.org/1999/xlink">
<rect x="8.000" y="5.000" width="2.000" height="1.950" fill="#FFFFFF" stroke="none" stroke-width="0"/>
<rect x="8.000" y="5.000" width="2.000" height="1.950" fill="none" stroke="#000000" stroke-width="0.100" />
<rect x="7.985" y="6.955" width="2.000" height="1.950" fill="#FFFFFF" stroke="none" stroke-width="0"/>
<rect x="7.985" y="6.955" width="2.000" height="1.950" fill="none" stroke="#000000" stroke-width="0.100" />
<rect x="8.000" y="8.905" width="2.000" height="1.950" fill="#FFFFFF" stroke="none" stroke-width="0"/>
<rect x="8.000" y="8.905" width="2.000" height="1.950" fill="none" stroke="#000000" stroke-width="0.100" />
<rect x="7.985" y="10.860" width="2.000" height="1.950" fill="#FFFFFF" stroke="none" stroke-width="0"/>
<rect x="7.985" y="10.860" width="2.000" height="1.950" fill="none" stroke="#000000" stroke-width="0.100" />
<rect x="8.000" y="12.805" width="2.000" height="1.950" fill="#FFFFFF" stroke="none" stroke-width="0"/>
<rect x="8.000" y="12.805" width="2.000" height="1.950" fill="none" stroke="#000000" stroke-width="0.100" />
<rect x="7.985" y="14.760" width="2.000" height="1.950" fill="#FFFFFF" stroke="none" stroke-width="0"/>
<rect x="7.985" y="14.760" width="2.000" height="1.950" fill="none" stroke="#000000" stroke-width="0.100" />
<rect x="8.000" y="16.710" width="2.000" height="1.950" fill="#FFFFFF" stroke="none" stroke-width="0"/>
<rect x="8.000" y="16.710" width="2.000" height="1.950" fill="none" stroke="#000000" stroke-width="0.100" />
<rect x="7.985" y="18.665" width="2.000" height="1.950" fill="#FFFFFF" stroke="none" stroke-width="0"/>
<rect x="7.985" y="18.665" width="2.000" height="1.950" fill="none" stroke="#000000" stroke-width="0.100" />
<line x1="14.000" y1="5.400" x2="16.000" y2="6.400" stroke="#000000" stroke-width="0.100" />
<line x1="16.000" y1="6.400" x2="16.000" y2="7.400" stroke="#000000" stroke-width="0.100" />
<line x1="16.000" y1="7.400" x2="14.000" y2="8.400" stroke="#000000" stroke-width="0.100" />
<line x1="14.000" y1="8.400" x2="14.000" y2="5.400" stroke="#000000" stroke-width="0.100" />
<rect x="20.000" y="5.000" width="2.000" height="1.950" fill="#FFFFFF" stroke="none" stroke-width="0"/>
<rect x="20.000" y="5.000" width="2.000" height="1.950" fill="none" stroke="#000000" stroke-width="0.100" />
<rect x="19.985" y="6.955" width="2.000" height="1.950" fill="#FFFFFF" stroke="none" stroke-width="0"/>
<rect x="19.985" y="6.955" width="2.000" height="1.950" fill="none" stroke="#000000" stroke-width="0.100" />
<rect x="20.000" y="8.905" width="2.000" height="1.950" fill="#FFFFFF" stroke="none" stroke-width="0"/>
<rect x="20.000" y="8.905" width="2.000" height="1.950" fill="none" stroke="#000000" stroke-width="0.100" />
<rect x="19.985" y="10.860" width="2.000" height="1.950" fill="#FFFFFF" stroke="none" stroke-width="0"/>
<rect x="19.985" y="10.860" width="2.000" height="1.950" fill="none" stroke="#000000" stroke-width="0.100" />
<line x1="14.000" y1="9.400" x2="16.000" y2="10.400" stroke="#000000" stroke-width="0.100" />
<line x1="16.000" y1="10.400" x2="16.000" y2="11.400" stroke="#000000" stroke-width="0.100" />
<line x1="16.000" y1="11.400" x2="14.000" y2="12.400" stroke="#000000" stroke-width="0.100" />
<line x1="14.000" y1="12.400" x2="14.000" y2="9.400" stroke="#000000" stroke-width="0.100" />
<line x1="14.000" y1="13.400" x2="16.000" y2="14.400" stroke="#000000" stroke-width="0.100" />
<line x1="16.000" y1="14.400" x2="16.000" y2="15.400" stroke="#000000" stroke-width="0.100" />
<line x1="16.000" y1="15.400" x2="14.000" y2="16.400" stroke="#000000" stroke-width="0.100" />
<line x1="14.000" y1="16.400" x2="14.000" y2="13.400" stroke="#000000" stroke-width="0.100" />
<line x1="14.000" y1="17.400" x2="16.000" y2="18.400" stroke="#000000" stroke-width="0.100" />
<line x1="16.000" y1="18.400" x2="16.000" y2="19.400" stroke="#000000" stroke-width="0.100" />
<line x1="16.000" y1="19.400" x2="14.000" y2="20.400" stroke="#000000" stroke-width="0.100" />
<line x1="14.000" y1="20.400" x2="14.000" y2="17.400" stroke="#000000" stroke-width="0.100" />
<line x1="10.000" y1="5.975" x2="14.000" y2="6.000" stroke="#000000" stroke-width="0.100" />
<line x1="10.000" y1="13.780" x2="14.000" y2="8.000" stroke="#000000" stroke-width="0.100" />
<line x1="9.985" y1="7.930" x2="14.000" y2="10.000" stroke="#000000" stroke-width="0.100" />
<line x1="9.985" y1="15.735" x2="14.000" y2="12.000" stroke="#000000" stroke-width="0.100" />
<line x1="10.000" y1="9.880" x2="14.000" y2="14.000" stroke="#000000" stroke-width="0.100" />
<line x1="10.000" y1="17.685" x2="14.000" y2="16.000" stroke="#000000" stroke-width="0.100" />
<line x1="9.985" y1="11.835" x2="14.000" y2="18.000" stroke="#000000" stroke-width="0.100" />
<line x1="9.985" y1="19.640" x2="14.000" y2="20.000" stroke="#000000" stroke-width="0.100" />
<line x1="16.000" y1="6.900" x2="20.000" y2="5.975" stroke="#000000" stroke-width="0.100" />
<line x1="16.000" y1="10.900" x2="19.985" y2="7.930" stroke="#000000" stroke-width="0.100" />
<line x1="16.000" y1="14.900" x2="20.000" y2="9.880" stroke="#000000" stroke-width="0.100" />
<line x1="16.000" y1="18.900" x2="19.985" y2="11.835" stroke="#000000" stroke-width="0.100" />
<line x1="25.000" y1="5.450" x2="27.000" y2="6.450" stroke="#000000" stroke-width="0.100" />
<line x1="27.000" y1="6.450" x2="27.000" y2="7.450" stroke="#000000" stroke-width="0.100" />
<line x1="27.000" y1="7.450" x2="25.000" y2="8.450" stroke="#000000" stroke-width="0.100" />
<line x1="25.000" y1="8.450" x2="25.000" y2="5.450" stroke="#000000" stroke-width="0.100" />
<line x1="25.000" y1="9.000" x2="27.000" y2="10.000" stroke="#000000" stroke-width="0.100" />
<line x1="27.000" y1="10.000" x2="27.000" y2="11.000" stroke="#000000" stroke-width="0.100" />
<line x1="27.000" y1="11.000" x2="25.000" y2="12.000" stroke="#000000" stroke-width="0.100" />
<line x1="25.000" y1="12.000" x2="25.000" y2="9.000" stroke="#000000" stroke-width="0.100" />
<line x1="22.000" y1="5.975" x2="25.000" y2="6.000" stroke="#000000" stroke-width="0.100" />
<line x1="22.000" y1="9.880" x2="25.000" y2="8.000" stroke="#000000" stroke-width="0.100" />
<line x1="21.985" y1="7.930" x2="25.000" y2="10.000" stroke="#000000" stroke-width="0.100" />
<line x1="21.985" y1="11.835" x2="25.000" y2="11.000" stroke="#000000" stroke-width="0.100" />
<rect x="29.000" y="6.000" width="2.000" height="1.950" fill="#FFFFFF" stroke="none" stroke-width="0"/>
<rect x="29.000" y="6.000" width="2.000" height="1.950" fill="none" stroke="#000000" stroke-width="0.100" />
<rect x="28.985" y="7.955" width="2.000" height="1.950" fill="#FFFFFF" stroke="none" stroke-width="0"/>
<rect x="28.985" y="7.955" width="2.000" height="1.950" fill="none" stroke="#000000" stroke-width="0.100" />
<line x1="27.000" y1="6.950" x2="29.000" y2="6.975" stroke="#000000" stroke-width="0.100" />
<line x1="27.000" y1="10.500" x2="28.985" y2="8.930" stroke="#000000" stroke-width="0.100" />
<line x1="33.000" y1="6.400" x2="35.000" y2="7.400" stroke="#000000" stroke-width="0.100" />
<line x1="35.000" y1="7.400" x2="35.000" y2="8.400" stroke="#000000" stroke-width="0.100" />
<line x1="35.000" y1="8.400" x2="33.000" y2="9.400" stroke="#000000" stroke-width="0.100" />
<line x1="33.000" y1="9.400" x2="33.000" y2="6.400" stroke="#000000" stroke-width="0.100" />
<line x1="31.000" y1="6.975" x2="33.000" y2="7.000" stroke="#000000" stroke-width="0.100" />
<line x1="30.985" y1="8.930" x2="33.000" y2="9.000" stroke="#000000" stroke-width="0.100" />
<rect x="38.000" y="7.000" width="2.000" height="1.950" fill="#FFFFFF" stroke="none" stroke-width="0"/>
<rect x="38.000" y="7.000" width="2.000" height="1.950" fill="none" stroke="#000000" stroke-width="0.100" />
<line x1="35.000" y1="7.900" x2="38.000" y2="7.975" stroke="#000000" stroke-width="0.100" />
<text x="15.000" y="7.000"  fill="#000000" text-anchor="start" font-size="0.80" font-family="sans" font-style="normal" font-weight="400">
W</text>
<text x="15.000" y="11.000"  fill="#000000" text-anchor="start" font-size="0.80" font-family="sans" font-style="normal" font-weight="400">
W</text>
<text x="15.000" y="15.000"  fill="#000000" text-anchor="start" font-size="0.80" font-family="sans" font-style="normal" font-weight="400">
W</text>
<text x="15.000" y="19.000"  fill="#000000" text-anchor="start" font-size="0.80" font-family="sans" font-style="normal" font-weight="400">
W</text>
<text x="26.000" y="7.000"  fill="#000000" text-anchor="start" font-size="0.80" font-family="sans" font-style="normal" font-weight="400">
W</text>
<text x="26.100" y="10.600"  fill="#000000" text-anchor="start" font-size="0.80" font-family="sans" font-style="normal" font-weight="400">
W</text>
<text x="34.000" y="8.000"  fill="#000000" text-anchor="start" font-size="0.80" font-family="sans" font-style="normal" font-weight="400">
W</text>
<line x1="14.000" y1="26.000" x2="16.000" y2="27.000" stroke="#000000" stroke-width="0.100" />
<line x1="16.000" y1="27.000" x2="16.000" y2="28.000" stroke="#000000" stroke-width="0.100" />
<line x1="16.000" y1="28.000" x2="14.000" y2="29.000" stroke="#000000" stroke-width="0.100" />
<line x1="14.000" y1="29.000" x2="14.000" y2="26.000" stroke="#000000" stroke-width="0.100" />
<text x="15.150" y="27.650"  fill="#000000" text-anchor="start" font-size="0.80" font-family="sans" font-style="normal" font-weight="400">
D</text>
<line x1="14.000" y1="30.000" x2="16.000" y2="31.000" stroke="#000000" stroke-width="0.100" />
<line x1="16.000" y1="31.000" x2="16.000" y2="32.000" stroke="#000000" stroke-width="0.100" />
<line x1="16.000" y1="32.000" x2="14.000" y2="33.000" stroke="#000000" stroke-width="0.100" />
<line x1="14.000" y1="33.000" x2="14.000" y2="30.000" stroke="#000000" stroke-width="0.100" />
<text x="15.150" y="31.650"  fill="#000000" text-anchor="start" font-size="0.80" font-family="sans" font-style="normal" font-weight="400">
D</text>
<line x1="14.000" y1="34.000" x2="16.000" y2="35.000" stroke="#000000" stroke-width="0.100" />
<line x1="16.000" y1="35.000" x2="16.000" y2="36.000" stroke="#000000" stroke-width="0.100" />
<line x1="16.000" y1="36.000" x2="14.000" y2="37.000" stroke="#000000" stroke-width="0.100" />
<line x1="14.000" y1="37.000" x2="14.000" y2="34.000" stroke="#000000" stroke-width="0.100" />
<text x="15.150" y="35.650"  fill="#000000" text-anchor="start" font-size="0.80" font-family="sans" font-style="normal" font-weight="400">
D</text>
<line x1="14.000" y1="38.000" x2="16.000" y2="39.000" stroke="#000000" stroke-width="0.100" />
<line x1="16.000" y1="39.000" x2="16.000" y2="40.000" stroke="#000000" stroke-width="0.100" />
<line x1="16.000" y1="40.000" x2="14.000" y2="41.000" stroke="#000000" stroke-width="0.100" />
<line x1="14.000" y1="41.000" x2="14.000" y2="38.000" stroke="#000000" stroke-width="0.100" />
<text x="15.150" y="39.650"  fill="#000000" text-anchor="start" font-size="0.80" font-family="sans" font-style="normal" font-weight="400">
D</text>
<line x1="10.000" y1="5.975" x2="14.000" y2="27.000" stroke="#000000" stroke-width="0.100" />
<line x1="9.985" y1="7.930" x2="14.000" y2="31.000" stroke="#000000" stroke-width="0.100" />
<line x1="10.000" y1="9.880" x2="14.000" y2="35.000" stroke="#000000" stroke-width="0.100" />
<line x1="9.985" y1="11.835" x2="14.000" y2="39.000" stroke="#000000" stroke-width="0.100" />
<line x1="9.985" y1="19.640" x2="14.000" y2="40.000" stroke="#000000" stroke-width="0.100" />
<line x1="10.000" y1="17.550" x2="14.000" y2="36.000" stroke="#000000" stroke-width="0.100" />
<line x1="10.000" y1="15.750" x2="14.000" y2="32.000" stroke="#000000" stroke-width="0.100" />
<line x1="10.000" y1="13.780" x2="14.000" y2="28.000" stroke="#000000" stroke-width="0.100" />
<rect x="20.000" y="25.495" width="2.000" height="1.950" fill="#FFFFFF" stroke="none" stroke-width="0"/>
<rect x="20.000" y="25.495" width="2.000" height="1.950" fill="none" stroke="#000000" stroke-width="0.100" />
<rect x="19.985" y="27.450" width="2.000" height="1.950" fill="#FFFFFF" stroke="none" stroke-width="0"/>
<rect x="19.985" y="27.450" width="2.000" height="1.950" fill="none" stroke="#000000" stroke-width="0.100" />
<rect x="20.000" y="29.400" width="2.000" height="1.950" fill="#FFFFFF" stroke="none" stroke-width="0"/>
<rect x="20.000" y="29.400" width="2.000" height="1.950" fill="none" stroke="#000000" stroke-width="0.100" />
<rect x="19.985" y="31.355" width="2.000" height="1.950" fill="#FFFFFF" stroke="none" stroke-width="0"/>
<rect x="19.985" y="31.355" width="2.000" height="1.950" fill="none" stroke="#000000" stroke-width="0.100" />
<line x1="16.000" y1="27.395" x2="20.000" y2="26.470" stroke="#000000" stroke-width="0.100" />
<line x1="16.000" y1="31.395" x2="19.985" y2="28.425" stroke="#000000" stroke-width="0.100" />
<line x1="16.000" y1="35.395" x2="20.000" y2="30.375" stroke="#000000" stroke-width="0.100" />
<line x1="16.000" y1="39.395" x2="19.985" y2="32.330" stroke="#000000" stroke-width="0.100" />
<line x1="25.000" y1="25.945" x2="27.000" y2="26.945" stroke="#000000" stroke-width="0.100" />
<line x1="27.000" y1="26.945" x2="27.000" y2="27.945" stroke="#000000" stroke-width="0.100" />
<line x1="27.000" y1="27.945" x2="25.000" y2="28.945" stroke="#000000" stroke-width="0.100" />
<line x1="25.000" y1="28.945" x2="25.000" y2="25.945" stroke="#000000" stroke-width="0.100" />
<line x1="25.000" y1="29.495" x2="27.000" y2="30.495" stroke="#000000" stroke-width="0.100" />
<line x1="27.000" y1="30.495" x2="27.000" y2="31.495" stroke="#000000" stroke-width="0.100" />
<line x1="27.000" y1="31.495" x2="25.000" y2="32.495" stroke="#000000" stroke-width="0.100" />
<line x1="25.000" y1="32.495" x2="25.000" y2="29.495" stroke="#000000" stroke-width="0.100" />
<line x1="22.000" y1="26.470" x2="25.000" y2="26.495" stroke="#000000" stroke-width="0.100" />
<line x1="22.000" y1="30.375" x2="25.000" y2="28.495" stroke="#000000" stroke-width="0.100" />
<line x1="21.985" y1="28.425" x2="25.000" y2="30.495" stroke="#000000" stroke-width="0.100" />
<line x1="21.985" y1="32.330" x2="25.000" y2="31.495" stroke="#000000" stroke-width="0.100" />
<rect x="29.000" y="26.495" width="2.000" height="1.950" fill="#FFFFFF" stroke="none" stroke-width="0"/>
<rect x="29.000" y="26.495" width="2.000" height="1.950" fill="none" stroke="#000000" stroke-width="0.100" />
<rect x="28.985" y="28.450" width="2.000" height="1.950" fill="#FFFFFF" stroke="none" stroke-width="0"/>
<rect x="28.985" y="28.450" width="2.000" height="1.950" fill="none" stroke="#000000" stroke-width="0.100" />
<line x1="27.000" y1="27.445" x2="29.000" y2="27.470" stroke="#000000" stroke-width="0.100" />
<line x1="27.000" y1="30.995" x2="28.985" y2="29.425" stroke="#000000" stroke-width="0.100" />
<line x1="33.000" y1="26.895" x2="35.000" y2="27.895" stroke="#000000" stroke-width="0.100" />
<line x1="35.000" y1="27.895" x2="35.000" y2="28.895" stroke="#000000" stroke-width="0.100" />
<line x1="35.000" y1="28.895" x2="33.000" y2="29.895" stroke="#000000" stroke-width="0.100" />
<line x1="33.000" y1="29.895" x2="33.000" y2="26.895" stroke="#000000" stroke-width="0.100" />
<line x1="31.000" y1="27.470" x2="33.000" y2="27.495" stroke="#000000" stroke-width="0.100" />
<line x1="30.985" y1="29.425" x2="33.000" y2="29.495" stroke="#000000" stroke-width="0.100" />
<rect x="38.000" y="27.495" width="2.000" height="1.950" fill="#FFFFFF" stroke="none" stroke-width="0"/>
<rect x="38.000" y="27.495" width="2.000" height="1.950" fill="none" stroke="#000000" stroke-width="0.100" />
<line x1="35.000" y1="28.395" x2="38.000" y2="28.470" stroke="#000000" stroke-width="0.100" />
<text x="26.000" y="27.495"  fill="#000000" text-anchor="start" font-size="0.80" font-family="sans" font-style="normal" font-weight="400">
W</text>
<text x="26.100" y="31.095"  fill="#000000" text-anchor="start" font-size="0.80" font-family="sans" font-style="normal" font-weight="400">
W</text>
<text x="34.000" y="28.495"  fill="#000000" text-anchor="start" font-size="0.80" font-family="sans" font-style="normal" font-weight="400">
W</text>
<line x1="24.942" y1="17.132" x2="26.942" y2="18.132" stroke="#000000" stroke-width="0.100" />
<line x1="26.942" y1="18.132" x2="26.942" y2="19.132" stroke="#000000" stroke-width="0.100" />
<line x1="26.942" y1="19.132" x2="24.942" y2="20.132" stroke="#000000" stroke-width="0.100" />
<line x1="24.942" y1="20.132" x2="24.942" y2="17.132" stroke="#000000" stroke-width="0.100" />
<line x1="24.942" y1="20.682" x2="26.942" y2="21.682" stroke="#000000" stroke-width="0.100" />
<line x1="26.942" y1="21.682" x2="26.942" y2="22.682" stroke="#000000" stroke-width="0.100" />
<line x1="26.942" y1="22.682" x2="24.942" y2="23.682" stroke="#000000" stroke-width="0.100" />
<line x1="24.942" y1="23.682" x2="24.942" y2="20.682" stroke="#000000" stroke-width="0.100" />
<rect x="28.942" y="17.682" width="2.000" height="1.950" fill="#FFFFFF" stroke="none" stroke-width="0"/>
<rect x="28.942" y="17.682" width="2.000" height="1.950" fill="none" stroke="#000000" stroke-width="0.100" />
<rect x="28.927" y="19.637" width="2.000" height="1.950" fill="#FFFFFF" stroke="none" stroke-width="0"/>
<rect x="28.927" y="19.637" width="2.000" height="1.950" fill="none" stroke="#000000" stroke-width="0.100" />
<line x1="26.942" y1="18.632" x2="28.942" y2="18.657" stroke="#000000" stroke-width="0.100" />
<line x1="26.942" y1="22.182" x2="28.927" y2="20.612" stroke="#000000" stroke-width="0.100" />
<line x1="32.942" y1="18.082" x2="34.942" y2="19.082" stroke="#000000" stroke-width="0.100" />
<line x1="34.942" y1="19.082" x2="34.942" y2="20.082" stroke="#000000" stroke-width="0.100" />
<line x1="34.942" y1="20.082" x2="32.942" y2="21.082" stroke="#000000" stroke-width="0.100" />
<line x1="32.942" y1="21.082" x2="32.942" y2="18.082" stroke="#000000" stroke-width="0.100" />
<line x1="30.942" y1="18.657" x2="32.942" y2="18.682" stroke="#000000" stroke-width="0.100" />
<line x1="30.927" y1="20.612" x2="32.942" y2="20.682" stroke="#000000" stroke-width="0.100" />
<rect x="37.942" y="18.682" width="2.000" height="1.950" fill="#FFFFFF" stroke="none" stroke-width="0"/>
<rect x="37.942" y="18.682" width="2.000" height="1.950" fill="none" stroke="#000000" stroke-width="0.100" />
<line x1="34.942" y1="19.582" x2="37.942" y2="19.657" stroke="#000000" stroke-width="0.100" />
<text x="25.942" y="18.682"  fill="#000000" text-anchor="start" font-size="0.80" font-family="sans" font-style="normal" font-weight="400">
D</text>
<text x="26.042" y="22.282"  fill="#000000" text-anchor="start" font-size="0.80" font-family="sans" font-style="normal" font-weight="400">
D</text>
<text x="33.942" y="19.682"  fill="#000000" text-anchor="start" font-size="0.80" font-family="sans" font-style="normal" font-weight="400">
W</text>
<line x1="33.000" y1="12.000" x2="35.000" y2="13.000" stroke="#000000" stroke-width="0.100" />
<line x1="35.000" y1="13.000" x2="35.000" y2="14.000" stroke="#000000" stroke-width="0.100" />
<line x1="35.000" y1="14.000" x2="33.000" y2="15.000" stroke="#000000" stroke-width="0.100" />
<line x1="33.000" y1="15.000" x2="33.000" y2="12.000" stroke="#000000" stroke-width="0.100" />
<rect x="38.000" y="12.600" width="2.000" height="1.950" fill="#FFFFFF" stroke="none" stroke-width="0"/>
<rect x="38.000" y="12.600" width="2.000" height="1.950" fill="none" stroke="#000000" stroke-width="0.100" />
<line x1="35.000" y1="13.500" x2="38.000" y2="13.575" stroke="#000000" stroke-width="0.100" />
<text x="34.000" y="13.600"  fill="#000000" text-anchor="start" font-size="0.80" font-family="sans" font-style="normal" font-weight="400">
D</text>
<line x1="22.000" y1="5.975" x2="25.000" y2="18.000" stroke="#000000" stroke-width="0.100" />
<line x1="21.985" y1="7.930" x2="25.000" y2="21.000" stroke="#000000" stroke-width="0.100" />
<line x1="22.000" y1="9.880" x2="25.000" y2="19.000" stroke="#000000" stroke-width="0.100" />
<line x1="21.985" y1="11.835" x2="25.000" y2="23.000" stroke="#000000" stroke-width="0.100" />
<line x1="31.000" y1="6.975" x2="33.000" y2="13.000" stroke="#000000" stroke-width="0.100" />
<line x1="30.985" y1="8.930" x2="33.000" y2="14.000" stroke="#000000" stroke-width="0.100" />
<text x="14.000" y="2.000"  fill="#000000" text-anchor="start" font-size="1.76" font-family="sans" font-style="normal" font-weight="400">
X</text>
<text x="25.000" y="2.000"  fill="#000000" text-anchor="start" font-size="1.76" font-family="sans" font-style="normal" font-weight="400">
Y</text>
<text x="33.000" y="2.000"  fill="#000000" text-anchor="start" font-size="1.76" font-family="sans" font-style="normal" font-weight="400">
Z</text>
<text x="8.600" y="6.225"  fill="#000000" text-anchor="start" font-size="0.80" font-family="sans" font-style="normal" font-weight="400">
C0</text>
<text x="8.585" y="8.130"  fill="#000000" text-anchor="start" font-size="0.80" font-family="sans" font-style="normal" font-weight="400">
C1</text>
<text x="8.600" y="10.080"  fill="#000000" text-anchor="start" font-size="0.80" font-family="sans" font-style="normal" font-weight="400">
C2</text>
<text x="8.535" y="11.985"  fill="#000000" text-anchor="start" font-size="0.80" font-family="sans" font-style="normal" font-weight="400">
C3</text>
<text x="8.600" y="13.930"  fill="#000000" text-anchor="start" font-size="0.80" font-family="sans" font-style="normal" font-weight="400">
C4</text>
<text x="8.600" y="15.900"  fill="#000000" text-anchor="start" font-size="0.80" font-family="sans" font-style="normal" font-weight="400">
C5</text>
<text x="8.600" y="17.850"  fill="#000000" text-anchor="start" font-size="0.80" font-family="sans" font-style="normal" font-weight="400">
C6</text>
<text x="8.600" y="19.800"  fill="#000000" text-anchor="start" font-size="0.80" font-family="sans" font-style="normal" font-weight="400">
C7</text>
<text x="38.800" y="8.225"  fill="#000000" text-anchor="start" font-size="0.80" font-family="sans" font-style="normal" font-weight="400">
C</text>
<text x="38.050" y="13.750"  fill="#000000" text-anchor="start" font-size="0.60" font-family="sans" font-style="normal" font-weight="400">
dC/dZ</text>
<text x="38.000" y="19.850"  fill="#000000" text-anchor="start" font-size="0.60" font-family="sans" font-style="normal" font-weight="400">
dC/dY</text>
<text x="38.100" y="28.700"  fill="#000000" text-anchor="start" font-size="0.60" font-family="sans" font-style="normal" font-weight="400">
dC/dX</text>
<text x="33.000" y="34.000"  fill="#000000" text-anchor="start" font-size="0.80" font-family="sans" font-style="normal" font-weight="400">
w == AC<tspan baseline-shift = "sub">n</tspan>+(1-A)C<tspan baseline-shift = "sub">n+1</tspan></text>
<text x="33.000" y="36.000"  fill="#000000" text-anchor="start" font-size="0.80" font-family="sans" font-style="normal" font-weight="400">
D == (C<tspan baseline-shift = "sub">n+1</tspan>-C<tspan baseline-shift = "sub">n</tspan>)/D</text>
</svg>
