<?xml version="1.0" encoding="UTF-8" standalone="no"?>
<!-- Created by diasvg.py -->
<svg width="80cm" height="30cm" viewBox="27.216 -7.336 193.375 55.975"
 xmlns="http://www.w3.org/2000/svg"
 xmlns:xlink="http://www.w3.org/1999/xlink">
<rect x="61.599" y="43.190" width="11.250" height="4.700" fill="#FFFFFF" stroke="none" stroke-width="0"/>
<rect x="61.599" y="43.190" width="11.250" height="4.700" fill="none" stroke="#000000" stroke-width="0.250" />
<text x="67.099" y="44.940"  fill="#000000" text-anchor="middle" font-size="0.9" font-family="serif" font-style="normal" font-weight="400">
Lookup +</text>
<text x="67.099" y="46.840"  fill="#000000" text-anchor="middle" font-size="0.9" font-family="serif" font-style="normal" font-weight="400">
Interpolation</text>
<rect x="62.300" y="16.875" width="11.250" height="2.850" fill="#FFFFFF" stroke="none" stroke-width="0"/>
<rect x="62.300" y="16.875" width="11.250" height="2.850" fill="none" stroke="#000000" stroke-width="0.250" />
<text x="67.800" y="18.525"  fill="#000000" text-anchor="middle" font-size="0.9" font-family="serif" font-style="normal" font-weight="400">
Report Generator</text>
<rect x="82.780" y="14.787" width="14.800" height="2.600" fill="#FFFFFF" stroke="none" stroke-width="0"/>
<rect x="82.780" y="14.787" width="14.800" height="2.600" fill="none" stroke="#000000" stroke-width="0.250" />
<text x="90.480" y="16.337"  fill="#000000" text-anchor="middle" font-size="0.9" font-family="serif" font-style="normal" font-weight="400">
Device Characterizer</text>
<ellipse cx="40.634" cy="32.578" rx="2.900" ry="1.950" fill="#FFFFFF" stroke="none"  /><ellipse cx="40.634" cy="32.578" rx="2.900" ry="1.950" fill="none" stroke="#000000"  stroke-width="0.250" /><text x="40.784" y="32.928"  fill="#000000" text-anchor="middle" font-size="0.9" font-family="serif" font-style="normal" font-weight="400">
&#915; Code</text>
<rect x="35.009" y="24.766" width="11.250" height="2.850" fill="#FFFFFF" stroke="none" stroke-width="0"/>
<rect x="35.009" y="24.766" width="11.250" height="2.850" fill="none" stroke="#000000" stroke-width="0.250" />
<text x="40.509" y="26.516"  fill="#000000" text-anchor="middle" font-size="0.9" font-family="serif" font-style="normal" font-weight="400">
&#915; Compiler</text>
<ellipse cx="40.634" cy="19.804" rx="2.900" ry="1.950" fill="#FFFFFF" stroke="none"  /><ellipse cx="40.634" cy="19.804" rx="2.900" ry="1.950" fill="none" stroke="#000000"  stroke-width="0.250" /><text x="40.634" y="20.154"  fill="#000000" text-anchor="middle" font-size="0.9" font-family="serif" font-style="normal" font-weight="400">
Equations</text>
<rect x="35.009" y="11.992" width="11.250" height="2.850" fill="#FFFFFF" stroke="none" stroke-width="0"/>
<rect x="35.009" y="11.992" width="11.250" height="2.850" fill="none" stroke="#000000" stroke-width="0.250" />
<text x="40.509" y="13.742"  fill="#000000" text-anchor="middle" font-size="0.9" font-family="serif" font-style="normal" font-weight="400">
Math Engine</text>
<rect x="34.679" y="-1.997" width="11.250" height="2.850" fill="#FFFFFF" stroke="none" stroke-width="0"/>
<rect x="34.679" y="-1.997" width="11.250" height="2.850" fill="none" stroke="#000000" stroke-width="0.250" />
<text x="40.229" y="-0.247"  fill="#000000" text-anchor="middle" font-size="0.9" font-family="serif" font-style="normal" font-weight="400">
Schematic Editor</text>
<ellipse cx="30.241" cy="5.616" rx="2.900" ry="1.950" fill="#FFFFFF" stroke="none"  /><ellipse cx="30.241" cy="5.616" rx="2.900" ry="1.950" fill="none" stroke="#000000"  stroke-width="0.250" /><text x="30.241" y="5.966"  fill="#000000" text-anchor="middle" font-size="0.9" font-family="serif" font-style="normal" font-weight="400">
Netlist</text>
<ellipse cx="90.252" cy="-5.311" rx="5.625" ry="1.900" fill="#FFFFFF" stroke="none"  /><ellipse cx="90.252" cy="-5.311" rx="5.625" ry="1.900" fill="none" stroke="#000000"  stroke-width="0.250" /><text x="90.127" y="-4.961"  fill="#000000" text-anchor="middle" font-size="0.9" font-family="serif" font-style="normal" font-weight="400">
Device Models</text>
<ellipse cx="51.821" cy="5.541" rx="2.900" ry="1.950" fill="#FFFFFF" stroke="none"  /><ellipse cx="51.821" cy="5.541" rx="2.900" ry="1.950" fill="none" stroke="#000000"  stroke-width="0.250" /><text x="51.921" y="5.991"  fill="#000000" text-anchor="middle" font-size="0.9" font-family="serif" font-style="normal" font-weight="400">
Guidance</text>
<ellipse cx="44.621" cy="5.541" rx="2.900" ry="1.950" fill="#FFFFFF" stroke="none"  /><ellipse cx="44.621" cy="5.541" rx="2.900" ry="1.950" fill="none" stroke="#000000"  stroke-width="0.250" /><text x="44.571" y="5.741"  fill="#000000" text-anchor="middle" font-size="0.9" font-family="serif" font-style="normal" font-weight="400">
Constraints</text>
<ellipse cx="37.421" cy="5.691" rx="2.900" ry="1.950" fill="#FFFFFF" stroke="none"  /><ellipse cx="37.421" cy="5.691" rx="2.900" ry="1.950" fill="none" stroke="#000000"  stroke-width="0.250" /><text x="37.221" y="6.041"  fill="#000000" text-anchor="middle" font-size="0.9" font-family="serif" font-style="normal" font-weight="400">
Spec</text>
<ellipse cx="74.622" cy="0.737" rx="4.400" ry="1.850" fill="#FFFFFF" stroke="none"  /><ellipse cx="74.622" cy="0.737" rx="4.400" ry="1.850" fill="none" stroke="#000000"  stroke-width="0.250" /><text x="74.622" y="0.887"  fill="#000000" text-anchor="middle" font-size="0.9" font-family="serif" font-style="normal" font-weight="400">
PDF Report</text>
<ellipse cx="62.412" cy="5.616" rx="4.150" ry="1.925" fill="#FFFFFF" stroke="none"  /><ellipse cx="62.412" cy="5.616" rx="4.150" ry="1.925" fill="none" stroke="#000000"  stroke-width="0.250" /><text x="62.462" y="5.841"  fill="#000000" text-anchor="middle" font-size="0.9" font-family="serif" font-style="normal" font-weight="400">
Annotations</text>
<line x1="40.304" y1="0.853" x2="30.241" y2="3.666" stroke="#000000" stroke-width="0.100" />
<polygon fill="#000000" stroke="none" stroke-width="0.100" points="30.241,3.666 32.033,2.646 31.686,3.262 32.302,3.609 "/>
<polygon fill="none" stroke="#000000" stroke-width="0.100"  points="30.241,3.666 32.033,2.646 31.686,3.262 32.302,3.609 "/>
<line x1="40.304" y1="0.853" x2="37.421" y2="3.741" stroke="#000000" stroke-width="0.100" />
<polygon fill="#000000" stroke="none" stroke-width="0.100" points="37.421,3.741 38.480,1.972 38.481,2.680 39.188,2.679 "/>
<polygon fill="none" stroke="#000000" stroke-width="0.100"  points="37.421,3.741 38.480,1.972 38.481,2.680 39.188,2.679 "/>
<line x1="40.304" y1="0.853" x2="44.621" y2="3.591" stroke="#000000" stroke-width="0.100" />
<polygon fill="#000000" stroke="none" stroke-width="0.100" points="44.621,3.591 42.664,2.942 43.354,2.788 43.200,2.098 "/>
<polygon fill="none" stroke="#000000" stroke-width="0.100"  points="44.621,3.591 42.664,2.942 43.354,2.788 43.200,2.098 "/>
<line x1="40.304" y1="0.853" x2="51.821" y2="3.591" stroke="#000000" stroke-width="0.100" />
<polygon fill="#000000" stroke="none" stroke-width="0.100" points="51.821,3.591 49.759,3.615 50.361,3.244 49.991,2.642 "/>
<polygon fill="none" stroke="#000000" stroke-width="0.100"  points="51.821,3.591 49.759,3.615 50.361,3.244 49.991,2.642 "/>
<line x1="62.412" y1="3.691" x2="45.929" y2="-0.572" stroke="#000000" stroke-width="0.100" />
<polygon fill="#000000" stroke="none" stroke-width="0.100" points="45.929,-0.572 47.991,-0.555 47.382,-0.196 47.740,0.413 "/>
<polygon fill="none" stroke="#000000" stroke-width="0.100"  points="45.929,-0.572 47.991,-0.555 47.382,-0.196 47.740,0.413 "/>
<line x1="67.925" y1="16.875" x2="62.412" y2="7.541" stroke="#000000" stroke-width="0.100" />
<polygon fill="#000000" stroke="none" stroke-width="0.100" points="62.412,7.541 63.860,9.009 63.175,8.833 62.999,9.517 "/>
<polygon fill="none" stroke="#000000" stroke-width="0.100"  points="62.412,7.541 63.860,9.009 63.175,8.833 62.999,9.517 "/>
<line x1="67.925" y1="16.875" x2="74.622" y2="2.587" stroke="#000000" stroke-width="0.100" />
<polygon fill="#000000" stroke="none" stroke-width="0.100" points="74.622,2.587 74.226,4.610 73.986,3.945 73.321,4.186 "/>
<polygon fill="none" stroke="#000000" stroke-width="0.100"  points="74.622,2.587 74.226,4.610 73.986,3.945 73.321,4.186 "/>
<line x1="67.530" y1="23.661" x2="67.925" y2="19.725" stroke="#000000" stroke-width="0.100" />
<polygon fill="#000000" stroke="none" stroke-width="0.100" points="67.925,19.725 68.223,21.765 67.775,21.218 67.228,21.665 "/>
<polygon fill="none" stroke="#000000" stroke-width="0.100"  points="67.925,19.725 68.223,21.765 67.775,21.218 67.228,21.665 "/>
<line x1="67.009" y1="34.144" x2="67.224" y2="43.190" stroke="#000000" stroke-width="0.100" />
<polygon fill="#000000" stroke="none" stroke-width="0.100" points="67.224,43.190 66.676,41.202 67.188,41.690 67.676,41.179 "/>
<polygon fill="none" stroke="#000000" stroke-width="0.100"  points="67.224,43.190 66.676,41.202 67.188,41.690 67.676,41.179 "/>
<line x1="90.252" y1="-3.411" x2="90.180" y2="14.787" stroke="#000000" stroke-width="0.100" />
<polygon fill="#000000" stroke="none" stroke-width="0.100" points="90.180,14.787 89.688,12.785 90.186,13.287 90.688,12.789 "/>
<polygon fill="none" stroke="#000000" stroke-width="0.100"  points="90.180,14.787 89.688,12.785 90.186,13.287 90.688,12.789 "/>
<line x1="30.241" y1="7.566" x2="40.634" y2="11.992" stroke="#000000" stroke-width="0.100" />
<polygon fill="#000000" stroke="none" stroke-width="0.100" points="40.634,11.992 38.598,11.668 39.254,11.404 38.990,10.748 "/>
<polygon fill="none" stroke="#000000" stroke-width="0.100"  points="40.634,11.992 38.598,11.668 39.254,11.404 38.990,10.748 "/>
<line x1="37.421" y1="7.641" x2="40.634" y2="11.992" stroke="#000000" stroke-width="0.100" />
<polygon fill="#000000" stroke="none" stroke-width="0.100" points="40.634,11.992 39.044,10.680 39.743,10.785 39.848,10.086 "/>
<polygon fill="none" stroke="#000000" stroke-width="0.100"  points="40.634,11.992 39.044,10.680 39.743,10.785 39.848,10.086 "/>
<line x1="44.621" y1="7.491" x2="40.634" y2="11.992" stroke="#000000" stroke-width="0.100" />
<polygon fill="#000000" stroke="none" stroke-width="0.100" points="40.634,11.992 41.586,10.163 41.629,10.869 42.335,10.826 "/>
<polygon fill="none" stroke="#000000" stroke-width="0.100"  points="40.634,11.992 41.586,10.163 41.629,10.869 42.335,10.826 "/>
<line x1="51.821" y1="7.491" x2="40.634" y2="11.992" stroke="#000000" stroke-width="0.100" />
<polygon fill="#000000" stroke="none" stroke-width="0.100" points="40.634,11.992 42.303,10.781 42.026,11.432 42.676,11.709 "/>
<polygon fill="none" stroke="#000000" stroke-width="0.100"  points="40.634,11.992 42.303,10.781 42.026,11.432 42.676,11.709 "/>
<line x1="40.634" y1="14.842" x2="40.634" y2="17.854" stroke="#000000" stroke-width="0.100" />
<polygon fill="#000000" stroke="none" stroke-width="0.100" points="40.634,17.854 40.134,15.854 40.634,16.354 41.134,15.854 "/>
<polygon fill="none" stroke="#000000" stroke-width="0.100"  points="40.634,17.854 40.134,15.854 40.634,16.354 41.134,15.854 "/>
<line x1="40.634" y1="21.754" x2="40.634" y2="24.766" stroke="#000000" stroke-width="0.100" />
<polygon fill="#000000" stroke="none" stroke-width="0.100" points="40.634,24.766 40.134,22.766 40.634,23.266 41.134,22.766 "/>
<polygon fill="none" stroke="#000000" stroke-width="0.100"  points="40.634,24.766 40.134,22.766 40.634,23.266 41.134,22.766 "/>
<line x1="40.634" y1="27.616" x2="40.634" y2="30.628" stroke="#000000" stroke-width="0.100" />
<polygon fill="#000000" stroke="none" stroke-width="0.100" points="40.634,30.628 40.134,28.628 40.634,29.128 41.134,28.628 "/>
<polygon fill="none" stroke="#000000" stroke-width="0.100"  points="40.634,30.628 40.134,28.628 40.634,29.128 41.134,28.628 "/>
<line x1="40.634" y1="34.528" x2="40.634" y2="37.540" stroke="#000000" stroke-width="0.100" />
<polygon fill="#000000" stroke="none" stroke-width="0.100" points="40.634,37.540 40.134,35.540 40.634,36.040 41.134,35.540 "/>
<polygon fill="none" stroke="#000000" stroke-width="0.100"  points="40.634,37.540 40.134,35.540 40.634,36.040 41.134,35.540 "/>
<rect x="35.009" y="37.540" width="11.250" height="10.300" fill="#FFFFFF" stroke="none" stroke-width="0"/>
<rect x="35.009" y="37.540" width="11.250" height="10.300" fill="none" stroke="#000000" stroke-width="0.250" />
<text x="40.559" y="39.190"  fill="#000000" text-anchor="middle" font-size="0.9" font-family="serif" font-style="normal" font-weight="400">
&#915; Machine</text>
<rect x="35.609" y="40.290" width="9.700" height="2.300" fill="#FFFFFF" stroke="none" stroke-width="0"/>
<rect x="35.609" y="40.290" width="9.700" height="2.300" fill="none" stroke="#000000" stroke-width="0.250" />
<rect x="35.709" y="44.390" width="9.700" height="2.300" fill="#FFFFFF" stroke="none" stroke-width="0"/>
<rect x="35.709" y="44.390" width="9.700" height="2.300" fill="none" stroke="#000000" stroke-width="0.250" />
<text x="40.209" y="41.740"  fill="#000000" text-anchor="middle" font-size="0.9" font-family="serif" font-style="normal" font-weight="400">
Search</text>
<text x="40.409" y="45.790"  fill="#000000" text-anchor="middle" font-size="0.9" font-family="serif" font-style="normal" font-weight="400">
Evaluate</text>
<ellipse cx="67.530" cy="29.536" rx="8.300" ry="5.875" fill="#FFFFFF" stroke="none"  /><ellipse cx="67.530" cy="29.536" rx="8.300" ry="5.875" fill="none" stroke="#000000"  stroke-width="0.250" /><ellipse cx="67.009" cy="31.110" rx="3.791" ry="3.035" fill="#FFFFFF" stroke="none"  /><ellipse cx="67.009" cy="31.110" rx="3.791" ry="3.035" fill="none" stroke="#000000"  stroke-width="0.250" /><text x="66.782" y="32.023"  fill="#000000" text-anchor="middle" font-size="0.9" font-family="serif" font-style="normal" font-weight="400">
LUT</text>
<text x="62.820" y="26.348"  fill="#000000" text-anchor="start" font-size="0.9" font-family="serif" font-style="normal" font-weight="400">
Hierarchical Database</text>
<line x1="90.180" y1="17.387" x2="70.799" y2="31.110" stroke="#000000" stroke-width="0.100" />
<polygon fill="#000000" stroke="none" stroke-width="0.100" points="70.799,31.110 72.143,29.546 72.024,30.243 72.721,30.362 "/>
<polygon fill="none" stroke="#000000" stroke-width="0.100"  points="70.799,31.110 72.143,29.546 72.024,30.243 72.721,30.362 "/>
<line x1="61.599" y1="45.540" x2="45.409" y2="45.540" stroke="#000000" stroke-width="0.100" />
<polygon fill="#000000" stroke="none" stroke-width="0.100" points="45.409,45.540 47.409,45.040 46.909,45.540 47.409,46.040 "/>
<polygon fill="none" stroke="#000000" stroke-width="0.100"  points="45.409,45.540 47.409,45.040 46.909,45.540 47.409,46.040 "/>
<line x1="45.309" y1="41.440" x2="59.230" y2="29.536" stroke="#000000" stroke-width="0.100" />
<polygon fill="#000000" stroke="none" stroke-width="0.100" points="59.230,29.536 58.035,31.215 58.090,30.511 57.385,30.455 "/>
<polygon fill="none" stroke="#000000" stroke-width="0.100"  points="59.230,29.536 58.035,31.215 58.090,30.511 57.385,30.455 "/>
<path stroke="#000000" fill="none" stroke-width="0.100"  d ="M 40.559,44.390 A 0.880,0.880 0 0,0 40.133,44.280 "/>
<polygon fill="#000000" stroke="none" stroke-width="0.100" points="40.448,44.390 39.948,44.640 40.073,44.390 39.948,44.140 "/>
<polygon fill="none" stroke="#000000" stroke-width="0.100"  points="40.448,44.390 39.948,44.640 40.073,44.390 39.948,44.140 "/>
</svg>
